<svg width="137" height="32" viewBox="0 0 137 32" fill="none" xmlns="http://www.w3.org/2000/svg">
<path d="M17.6195 25.6894C17.6482 22.7523 16.9036 20.3638 15.9564 20.3545C15.0091 20.3453 14.218 22.7188 14.1893 25.6559C14.1605 28.593 14.9052 30.9816 15.8524 30.9908C16.7996 31.0001 17.5908 28.6266 17.6195 25.6894Z" fill="#FF5E48"/>
<path d="M12.1262 25.0223C13.7384 22.567 14.4034 20.1551 13.6116 19.6352C12.8197 19.1152 10.8709 20.6841 9.2587 23.1394C7.64647 25.5947 6.98145 28.0066 7.77326 28.5266C8.56513 29.0465 10.5139 27.4776 12.1262 25.0223Z" fill="#FF5E48"/>
<path d="M7.85877 21.4994C10.5425 20.3057 12.406 18.6363 12.021 17.7707C11.636 16.9052 9.14837 17.1713 6.46459 18.3651C3.78084 19.5588 1.91734 21.2282 2.30233 22.0938C2.68731 22.9593 5.17502 22.6932 7.85877 21.4994Z" fill="#FF5E48"/>
<path d="M11.6988 15.3437C11.8429 14.4074 9.60628 13.2862 6.70324 12.8394C3.80013 12.3925 1.32989 12.7893 1.18579 13.7256C1.04169 14.6618 3.27828 15.783 6.18137 16.2298C9.08443 16.6767 11.5547 16.2799 11.6988 15.3437Z" fill="#FF5E48"/>
<path d="M12.7413 13.1134C13.3686 12.4037 12.0929 10.2514 9.89204 8.30628C7.69115 6.36114 5.39842 5.35969 4.77111 6.06949C4.14379 6.7793 5.41944 8.93156 7.62036 10.8767C9.82126 12.8219 12.114 13.8233 12.7413 13.1134Z" fill="#FF5E48"/>
<path d="M14.8171 11.8098C15.7286 11.5518 15.8191 9.05154 15.0194 6.22527C14.2197 3.39897 12.8324 1.31689 11.9209 1.57482C11.0094 1.83275 10.9188 4.333 11.7186 7.15932C12.5183 9.98556 13.9056 12.0677 14.8171 11.8098Z" fill="#FF5E48"/>
<path d="M20.4533 7.24747C21.3087 4.43748 21.2675 1.93593 20.3612 1.66008C19.455 1.38423 18.027 3.43854 17.1716 6.24852C16.3163 9.05848 16.3575 11.56 17.2638 11.8359C18.17 12.1117 19.598 10.0575 20.4533 7.24747Z" fill="#FF5E48"/>
<path d="M24.4811 11.0441C26.7196 9.1423 28.0371 7.01538 27.4237 6.29348C26.8104 5.57156 24.4985 6.52803 22.2601 8.42972C20.0216 10.3315 18.7041 12.4584 19.3174 13.1803C19.9307 13.9022 22.2426 12.9458 24.4811 11.0441Z" fill="#FF5E48"/>
<path d="M25.8125 16.417C28.7238 16.0275 30.9821 14.9507 30.8564 14.0117C30.7309 13.0728 28.2689 12.6275 25.3576 13.0169C22.4463 13.4064 20.188 14.4833 20.3136 15.4222C20.4392 16.3611 22.9011 16.8065 25.8125 16.417Z" fill="#FF5E48"/>
<path d="M29.5683 22.362C29.9702 21.5043 28.14 19.7985 25.4803 18.552C22.8207 17.3056 20.3387 16.9905 19.9367 17.8482C19.5347 18.706 21.3649 20.4118 24.0246 21.6583C26.6843 22.9047 29.1663 23.2198 29.5683 22.362Z" fill="#FF5E48"/>
<path d="M23.9736 28.691C24.7755 28.1868 24.1582 25.7622 22.5947 23.2756C21.0313 20.7891 19.1137 19.1821 18.3118 19.6863C17.5099 20.1905 18.1272 22.615 19.6907 25.1016C21.2541 27.5882 23.1717 29.1953 23.9736 28.691Z" fill="#FF5E48"/>
<path d="M39.2856 22.7936V4.50794H47.4531C48.7721 4.50794 49.922 4.73651 50.9027 5.19365C51.8835 5.63386 52.6444 6.26032 53.1856 7.07302C53.7267 7.88571 53.9972 8.83386 53.9972 9.91746C53.9972 10.9841 53.7267 11.9238 53.1856 12.7365C52.6444 13.5323 51.8835 14.1587 50.9027 14.6159C49.922 15.0561 48.7721 15.2762 47.4531 15.2762H42.3802V12.4063H47.3517C48.2817 12.4063 48.9919 12.1947 49.4823 11.7714C49.9896 11.3312 50.2432 10.7217 50.2432 9.94286C50.2432 9.14709 49.9981 8.54603 49.5077 8.13968C49.0173 7.7164 48.2986 7.50476 47.3517 7.50476H43.1918V22.7936H39.2856ZM49.5838 22.7936L42.2533 13.2952H46.3878L54.8596 22.7936H49.5838Z" fill="#222222"/>
<path d="M61.9033 23.0476C60.466 23.0476 59.2147 22.7683 58.1493 22.2095C57.084 21.6339 56.2554 20.8381 55.6636 19.8222C55.0886 18.8063 54.8012 17.6381 54.8012 16.3175C54.8012 14.9799 55.0886 13.8116 55.6636 12.8127C56.2554 11.7968 57.0756 11.0095 58.124 10.4508C59.1724 9.87513 60.3899 9.5873 61.7765 9.5873C63.1124 9.5873 64.2707 9.8582 65.2515 10.4C66.2323 10.9418 66.9932 11.6952 67.5343 12.6603C68.0754 13.6254 68.346 14.7598 68.346 16.0635C68.346 16.3344 68.3375 16.5884 68.3206 16.8254C68.3037 17.0455 68.2784 17.2571 68.2445 17.4603H57.0333V14.946H65.1754L64.5159 15.4032C64.5159 14.3534 64.2623 13.5831 63.755 13.0921C63.2646 12.5841 62.5882 12.3302 61.7258 12.3302C60.7281 12.3302 59.9502 12.6688 59.3922 13.346C58.8511 14.0233 58.5805 15.0392 58.5805 16.3937C58.5805 17.7143 58.8511 18.6963 59.3922 19.3397C59.9502 19.9831 60.7788 20.3048 61.878 20.3048C62.4867 20.3048 63.0109 20.2032 63.4506 20C63.8902 19.7968 64.22 19.4667 64.4398 19.0095H68.0162C67.5935 20.2624 66.8664 21.2529 65.8349 21.981C64.8203 22.6921 63.5098 23.0476 61.9033 23.0476Z" fill="#222222"/>
<path d="M78.2692 23.0476C77.0348 23.0476 76.0455 22.7598 75.3015 22.1841C74.5575 21.6085 74.1178 20.8212 73.9825 19.8222L74.1854 19.7968V28H70.3807V9.84127H74.1094V12.7111L73.8811 12.6603C74.0671 11.7122 74.5744 10.9672 75.403 10.4254C76.2315 9.86667 77.2546 9.5873 78.4721 9.5873C79.6389 9.5873 80.645 9.86667 81.4905 10.4254C82.3529 10.9672 83.0124 11.7376 83.469 12.7365C83.9424 13.7354 84.1792 14.9122 84.1792 16.2667C84.1792 17.6381 83.934 18.8317 83.4436 19.8476C82.9532 20.8635 82.2684 21.6508 81.3891 22.2095C80.5097 22.7683 79.4698 23.0476 78.2692 23.0476ZM77.2039 20C78.1001 20 78.8272 19.6783 79.3852 19.0349C79.9433 18.3915 80.2223 17.4772 80.2223 16.2921C80.2223 15.1069 79.9348 14.2011 79.3599 13.5746C78.8018 12.9481 78.0663 12.6349 77.1531 12.6349C76.2738 12.6349 75.5467 12.9566 74.9718 13.6C74.4137 14.2265 74.1347 15.1323 74.1347 16.3175C74.1347 17.5026 74.4137 18.4169 74.9718 19.0603C75.5467 19.6868 76.2907 20 77.2039 20Z" fill="#222222"/>
<path d="M94.4006 22.7936C94.2991 22.4212 94.2231 22.0233 94.1723 21.6C94.1385 21.1767 94.1216 20.6857 94.1216 20.127H94.0201V14.0063C94.0201 13.4815 93.8426 13.0751 93.4875 12.7873C93.1493 12.4825 92.642 12.3302 91.9656 12.3302C91.323 12.3302 90.8073 12.4402 90.4183 12.6603C90.0463 12.8804 89.8011 13.2021 89.6828 13.6254H86.0556C86.2247 12.4571 86.825 11.4921 87.8565 10.7302C88.888 9.96825 90.3 9.5873 92.0924 9.5873C93.9525 9.5873 95.3729 10.0021 96.3537 10.8317C97.3345 11.6614 97.8249 12.855 97.8249 14.4127V20.127C97.8249 20.5503 97.8502 20.982 97.901 21.4222C97.9686 21.8455 98.07 22.3026 98.2053 22.7936H94.4006ZM89.8857 23.0476C88.6005 23.0476 87.5775 22.7259 86.8165 22.0825C86.0556 21.4222 85.6751 20.5503 85.6751 19.4667C85.6751 18.2645 86.1232 17.2995 87.0194 16.5714C87.9326 15.8265 89.2008 15.3439 90.8242 15.1238L94.6035 14.5905V16.8L91.4583 17.2825C90.7819 17.3841 90.2831 17.5704 89.9618 17.8413C89.6405 18.1122 89.4798 18.4847 89.4798 18.9587C89.4798 19.382 89.632 19.7037 89.9364 19.9238C90.2408 20.1439 90.6466 20.254 91.1539 20.254C91.9487 20.254 92.6251 20.0423 93.1831 19.619C93.7411 19.1788 94.0201 18.6709 94.0201 18.0952L94.3752 20.127C94.0032 21.0921 93.4367 21.8201 92.6758 22.3111C91.9149 22.8021 90.9848 23.0476 89.8857 23.0476Z" fill="#222222"/>
<path d="M100.204 22.7936V9.84127H104.009V22.7936H100.204ZM100.077 8.11429V4H104.136V8.11429H100.077Z" fill="#222222"/>
<path d="M107.041 22.7936V9.84127H110.769V12.8889H110.846V22.7936H107.041ZM110.846 16.0381L110.516 12.9651C110.82 11.8645 111.319 11.0265 112.012 10.4508C112.706 9.87513 113.568 9.5873 114.6 9.5873C114.921 9.5873 115.158 9.62116 115.31 9.68889V13.2444C115.225 13.2106 115.107 13.1937 114.955 13.1937C114.802 13.1767 114.616 13.1683 114.397 13.1683C113.179 13.1683 112.283 13.3884 111.708 13.8286C111.133 14.2519 110.846 14.9884 110.846 16.0381Z" fill="#222222"/>
<path d="M117.147 22.7936V4.50794H120.952V22.7936H117.147Z" fill="#222222"/>
<path d="M124.643 28L128.22 20.0762L128.879 18.9841L132.227 9.84127H136.286L128.448 28H124.643ZM127.383 22.5397L122.411 9.84127H126.52L130.604 21.4222L127.383 22.5397Z" fill="#222222"/>
</svg>
