<svg width="171" height="40" viewBox="0 0 171 40" fill="none" xmlns="http://www.w3.org/2000/svg">
<path d="M22.0251 32.1118C22.061 28.4403 21.1302 25.4547 19.9462 25.4431C18.7621 25.4316 17.7732 28.3985 17.7373 32.0699C17.7014 35.7413 18.6322 38.727 19.8162 38.7385C21.0003 38.7501 21.9893 35.7832 22.0251 32.1118Z" fill="#03BE63"/>
<path d="M15.1572 31.2777C17.1725 28.2086 18.0038 25.1937 17.014 24.5438C16.0242 23.8939 13.5881 25.855 11.5729 28.9241C9.5576 31.9933 8.72632 35.0081 9.71608 35.6581C10.7059 36.308 13.1419 34.3469 15.1572 31.2777Z" fill="#03BE63"/>
<path d="M9.82297 26.8741C13.1777 25.382 15.5071 23.2952 15.0258 22.2133C14.5446 21.1314 11.435 21.464 8.08025 22.9563C4.72556 24.4484 2.39618 26.5352 2.87742 27.6171C3.35865 28.699 6.46828 28.3664 9.82297 26.8741Z" fill="#03BE63"/>
<path d="M14.6236 19.1797C14.8037 18.0094 12.008 16.6079 8.37917 16.0493C4.75028 15.4908 1.66249 15.9868 1.48236 17.1571C1.30223 18.3274 4.09797 19.7289 7.72684 20.2874C11.3557 20.846 14.4435 20.35 14.6236 19.1797Z" fill="#03BE63"/>
<path d="M15.9261 16.3919C16.7102 15.5047 15.1157 12.8144 12.3646 10.383C9.61344 7.95155 6.74754 6.69974 5.9634 7.58699C5.17925 8.47425 6.77381 11.1646 9.52496 13.596C12.2761 16.0275 15.142 17.2792 15.9261 16.3919Z" fill="#03BE63"/>
<path d="M18.5215 14.7621C19.6608 14.4397 19.774 11.3143 18.7744 7.78146C17.7747 4.24859 16.0406 1.64599 14.9012 1.9684C13.7619 2.29081 13.6487 5.41612 14.6484 8.94903C15.648 12.4818 17.3821 15.0845 18.5215 14.7621Z" fill="#03BE63"/>
<path d="M25.5668 9.05921C26.636 5.54673 26.5845 2.41979 25.4517 2.07498C24.3189 1.73017 22.5338 4.29805 21.4646 7.81053C20.3955 11.323 20.447 14.4499 21.5798 14.7947C22.7126 15.1395 24.4977 12.5717 25.5668 9.05921Z" fill="#03BE63"/>
<path d="M30.5996 13.8051C33.3978 11.4279 35.0447 8.76923 34.278 7.86686C33.5113 6.96446 30.6215 8.16003 27.8234 10.5372C25.0252 12.9144 23.3784 15.573 24.1451 16.4754C24.9117 17.3778 27.8016 16.1823 30.5996 13.8051Z" fill="#03BE63"/>
<path d="M32.2651 20.5213C35.9043 20.0344 38.7271 18.6883 38.5701 17.5147C38.4131 16.3411 35.3357 15.7843 31.6965 16.2711C28.0573 16.758 25.2345 18.1041 25.3915 19.2778C25.5485 20.4514 28.6259 21.0082 32.2651 20.5213Z" fill="#03BE63"/>
<path d="M36.9592 27.9525C37.4617 26.8804 35.174 24.7481 31.8493 23.1901C28.5248 21.632 25.4223 21.2381 24.9198 22.3103C24.4173 23.3825 26.7051 25.5148 30.0297 27.0729C33.3543 28.6309 36.4568 29.0248 36.9592 27.9525Z" fill="#03BE63"/>
<path d="M29.9671 35.8638C30.9695 35.2335 30.1978 32.2028 28.2435 29.0946C26.2892 25.9863 23.8922 23.9776 22.8898 24.6078C21.8874 25.2381 22.6591 28.2688 24.6134 31.377C26.5678 34.4853 28.9647 36.4941 29.9671 35.8638Z" fill="#03BE63"/>
<path d="M49.1069 28.4921V5.63492H59.2952C60.9405 5.63492 62.3749 5.92063 63.5983 6.49206C64.8218 7.04233 65.771 7.8254 66.446 8.84127C67.121 9.85714 67.4585 11.0423 67.4585 12.3968C67.4585 13.7302 67.121 14.9048 66.446 15.9206C65.771 16.9153 64.8218 17.6984 63.5983 18.2698C62.3749 18.8201 60.9405 19.0952 59.2952 19.0952H52.9671V15.5079H59.1687C60.3288 15.5079 61.2148 15.2434 61.8265 14.7143C62.4593 14.164 62.7757 13.4021 62.7757 12.4286C62.7757 11.4339 62.4698 10.6825 61.8581 10.1746C61.2464 9.6455 60.3499 9.38095 59.1687 9.38095H53.9796V28.4921H49.1069ZM61.953 28.4921L52.8089 16.619H57.9663L68.5343 28.4921H61.953Z" fill="white"/>
<path d="M77.3207 28.8095C75.5278 28.8095 73.9668 28.4603 72.6379 27.7619C71.309 27.0423 70.2754 26.0476 69.5371 24.7778C68.82 23.5079 68.4614 22.0476 68.4614 20.3968C68.4614 18.7249 68.82 17.2646 69.5371 16.0159C70.2754 14.746 71.2985 13.7619 72.6063 13.0635C73.9141 12.3439 75.4329 11.9841 77.1625 11.9841C78.829 11.9841 80.2739 12.3228 81.4973 13C82.7207 13.6772 83.67 14.619 84.345 15.8254C85.02 17.0317 85.3575 18.4497 85.3575 20.0794C85.3575 20.418 85.3469 20.7354 85.3258 21.0317C85.3047 21.3069 85.2731 21.5714 85.2309 21.8254H71.2457V18.6825H81.4024L80.5797 19.254C80.5797 17.9418 80.2633 16.9788 79.6305 16.3651C79.0188 15.7302 78.175 15.4127 77.0993 15.4127C75.8547 15.4127 74.8844 15.836 74.1883 16.6825C73.5133 17.5291 73.1758 18.7989 73.1758 20.4921C73.1758 22.1429 73.5133 23.3704 74.1883 24.1746C74.8844 24.9788 75.918 25.381 77.2891 25.381C78.0485 25.381 78.7024 25.254 79.2508 25C79.7993 24.746 80.2106 24.3333 80.4848 23.7619H84.9461C84.4188 25.328 83.5118 26.5661 82.225 27.4762C80.9594 28.3651 79.3247 28.8095 77.3207 28.8095Z" fill="white"/>
<path d="M97.7359 28.8095C96.196 28.8095 94.9621 28.4497 94.0339 27.7302C93.1058 27.0106 92.5574 26.0265 92.3886 24.7778L92.6417 24.746V35H87.8956V12.3016H92.5468V15.8889L92.2621 15.8254C92.4941 14.6402 93.1269 13.709 94.1605 13.0317C95.1941 12.3333 96.4703 11.9841 97.989 11.9841C99.4445 11.9841 100.7 12.3333 101.754 13.0317C102.83 13.709 103.653 14.672 104.222 15.9206C104.813 17.1693 105.108 18.6402 105.108 20.3333C105.108 22.0476 104.802 23.5397 104.191 24.8095C103.579 26.0794 102.725 27.0635 101.628 27.7619C100.531 28.4603 99.2335 28.8095 97.7359 28.8095ZM96.407 25C97.5249 25 98.432 24.5979 99.1281 23.7937C99.8242 22.9894 100.172 21.8466 100.172 20.3651C100.172 18.8836 99.8136 17.7513 99.0964 16.9683C98.4003 16.1852 97.4828 15.7937 96.3437 15.7937C95.2468 15.7937 94.3398 16.1958 93.6226 17C92.9265 17.7831 92.5785 18.9153 92.5785 20.3968C92.5785 21.8783 92.9265 23.0212 93.6226 23.8254C94.3398 24.6085 95.2679 25 96.407 25Z" fill="white"/>
<path d="M117.859 28.4921C117.732 28.0265 117.637 27.5291 117.574 27C117.532 26.4709 117.511 25.8571 117.511 25.1587H117.384V17.5079C117.384 16.8519 117.162 16.3439 116.72 15.9841C116.298 15.6032 115.665 15.4127 114.821 15.4127C114.02 15.4127 113.376 15.5503 112.891 15.8254C112.427 16.1005 112.121 16.5026 111.973 17.0317H107.449C107.66 15.5714 108.409 14.3651 109.695 13.4127C110.982 12.4603 112.743 11.9841 114.979 11.9841C117.3 11.9841 119.071 12.5026 120.295 13.5397C121.518 14.5767 122.13 16.0688 122.13 18.0159V25.1587C122.13 25.6878 122.162 26.2275 122.225 26.7778C122.309 27.3069 122.436 27.8783 122.605 28.4921H117.859ZM112.227 28.8095C110.623 28.8095 109.347 28.4074 108.398 27.6032C107.449 26.7778 106.974 25.6878 106.974 24.3333C106.974 22.8307 107.533 21.6243 108.651 20.7143C109.79 19.7831 111.372 19.1799 113.397 18.9048L118.112 18.2381V21L114.188 21.6032C113.345 21.7302 112.722 21.963 112.321 22.3016C111.921 22.6402 111.72 23.1058 111.72 23.6984C111.72 24.2275 111.91 24.6296 112.29 24.9048C112.67 25.1799 113.176 25.3175 113.809 25.3175C114.8 25.3175 115.644 25.0529 116.34 24.5238C117.036 23.9735 117.384 23.3386 117.384 22.619L117.827 25.1587C117.363 26.3651 116.656 27.2751 115.707 27.8889C114.758 28.5026 113.598 28.8095 112.227 28.8095Z" fill="white"/>
<path d="M125.098 28.4921V12.3016H129.844V28.4921H125.098ZM124.94 10.1429V5H130.002V10.1429H124.94Z" fill="white"/>
<path d="M133.626 28.4921V12.3016H138.277V16.1111H138.372V28.4921H133.626ZM138.372 20.0476L137.961 16.2063C138.341 14.8307 138.963 13.7831 139.828 13.0635C140.693 12.3439 141.768 11.9841 143.055 11.9841C143.456 11.9841 143.751 12.0265 143.941 12.1111V16.5556C143.836 16.5132 143.688 16.4921 143.498 16.4921C143.308 16.4709 143.076 16.4603 142.802 16.4603C141.283 16.4603 140.165 16.7354 139.448 17.2857C138.731 17.8148 138.372 18.7355 138.372 20.0476Z" fill="white"/>
<path d="M146.233 28.4921V5.63492H150.979V28.4921H146.233Z" fill="white"/>
<path d="M155.584 35L160.045 25.0952L160.868 23.7302L165.044 12.3016H170.107L160.33 35H155.584ZM159.001 28.1746L152.799 12.3016H157.925L163.019 26.7778L159.001 28.1746Z" fill="white"/>
</svg>
