<svg width="28" height="28" viewBox="0 0 28 28" fill="none" xmlns="http://www.w3.org/2000/svg">
<path d="M21 8.16667C19.0503 7.4341 16.6265 7 14 7C11.3735 7 8.94976 7.4341 7 8.16667" stroke="#222222" stroke-width="2" stroke-linecap="round"/>
<path d="M8.16602 8.16406V10.1768C8.16602 12.2689 9.24109 14.2076 10.9981 15.284L11.5984 15.6517C13.0762 16.5571 14.9225 16.5571 16.4003 15.6517L17.0006 15.284C18.7576 14.2076 19.8327 12.2689 19.8327 10.1768V8.16406" stroke="#222222" stroke-width="2" stroke-linecap="round"/>
<path d="M8.16602 9.33593V6.95141C8.16602 5.38231 9.24109 3.92828 10.9981 3.12098L11.5984 2.8452C13.0762 2.16618 14.9225 2.16618 16.4003 2.8452L17.0006 3.12098C18.7576 3.92828 19.8327 5.38231 19.8327 6.95141V9.33593" stroke="#222222" stroke-width="2" stroke-linecap="round"/>
<path d="M17.5007 15.1641L18.6673 18.6641M18.6673 18.6641L17.0704 20.0587C15.6075 21.3363 14.8761 21.9751 14.0007 21.9751C13.1252 21.9751 12.3938 21.3363 10.931 20.0587L9.33398 18.6641M18.6673 18.6641L20.6904 19.3384C21.8549 19.7265 22.4371 19.9207 22.9539 20.2206C23.4599 20.5143 23.9187 20.8824 24.3152 21.3125C24.7201 21.752 25.6673 23.3307 25.6673 25.6641M9.33398 18.6641L10.5007 15.1641M9.33398 18.6641L7.31082 19.3384C6.14642 19.7265 5.56422 19.9207 5.04738 20.2206C4.54147 20.5143 4.08261 20.8824 3.68619 21.3125C3.28121 21.752 2.33398 23.3307 2.33398 25.6641" stroke="#222222" stroke-width="2" stroke-linecap="round" stroke-linejoin="round"/>
</svg>
