<svg width="292" height="288" viewBox="0 0 292 288" fill="none" xmlns="http://www.w3.org/2000/svg">
<path d="M91.792 12.8697C101.653 2.67556 116.394 -1.13166 129.956 3.01266C137.844 5.42293 146.304 5.18337 154.043 2.3306C167.35 -2.57456 182.282 0.392404 192.704 10.0122C198.765 15.607 206.491 19.0626 214.701 19.8508C228.818 21.2062 240.985 30.3597 246.201 43.5497C249.235 51.2208 254.697 57.6872 261.752 61.9604C273.883 69.3078 280.874 82.8349 279.853 96.9826C279.259 105.211 281.375 113.407 285.877 120.319C293.619 132.203 294.05 147.425 286.993 159.728C282.888 166.883 281.239 175.186 282.298 183.368C284.118 197.435 277.903 211.336 266.207 219.358C259.405 224.024 254.318 230.789 251.723 238.619C247.26 252.083 235.631 261.911 221.614 264.063C213.461 265.314 205.943 269.202 200.208 275.13C190.347 285.324 175.606 289.132 162.044 284.987C154.156 282.577 145.696 282.817 137.957 285.669C124.65 290.575 109.718 287.608 99.296 277.988C93.2348 272.393 85.5087 268.937 77.2986 268.149C63.182 266.794 51.0154 257.64 45.7986 244.45C42.7646 236.779 37.3026 230.313 30.2476 226.04C18.1169 218.692 11.1258 205.165 12.1474 191.017C12.7415 182.789 10.6255 174.593 6.12273 167.681C-1.6194 155.797 -2.05023 140.575 5.00729 128.272C9.11184 121.117 10.7609 112.814 9.70229 104.632C7.88215 90.5651 14.0969 76.6641 25.7925 68.642C32.5946 63.9764 37.682 57.2113 40.2773 49.3808C44.7396 35.9167 56.369 26.0894 70.3864 23.9374C78.5387 22.6858 86.0569 18.7985 91.792 12.8697Z" fill="#FF5E48" fill-opacity="0.2"/>
</svg>
