<svg width="28" height="28" viewBox="0 0 28 28" fill="none" xmlns="http://www.w3.org/2000/svg">
<path d="M2.33398 11.6641L12.9595 3.27552C13.256 3.0414 13.6228 2.91406 14.0007 2.91406C14.3785 2.91406 14.7453 3.0414 15.0418 3.27552L19.2507 6.59827V4.66406C19.2507 4.01974 19.773 3.4974 20.4173 3.4974H21.584C22.2283 3.4974 22.7507 4.01972 22.7507 4.66406V9.36144L25.6673 11.6641" stroke="#222222" stroke-width="2" stroke-linecap="round" stroke-linejoin="round"/>
<path d="M23.3327 13.4141V18.0807C23.3327 21.3805 23.3327 23.0304 22.3075 24.0556C21.2824 25.0807 19.6325 25.0807 16.3327 25.0807H11.666C8.36618 25.0807 6.71627 25.0807 5.69114 24.0556C4.66602 23.0304 4.66602 21.3805 4.66602 18.0807V13.4141" stroke="#222222" stroke-width="2" stroke-linecap="round" stroke-linejoin="round"/>
<path d="M17.502 18.0859C16.5692 18.8121 15.3439 19.2526 14.002 19.2526C12.6601 19.2526 11.4347 18.8121 10.502 18.0859" stroke="#222222" stroke-width="2" stroke-linecap="round" stroke-linejoin="round"/>
</svg>
