<svg width="28" height="28" viewBox="0 0 28 28" fill="none" xmlns="http://www.w3.org/2000/svg">
<path d="M12.8333 12.8333L7 7" stroke="#222222" stroke-width="1.8"/>
<path d="M5.83398 8.7526L8.75065 5.83594L5.25065 4.08594L4.08398 5.2526L5.83398 8.7526Z" stroke="#222222" stroke-width="1.8" stroke-linejoin="round"/>
<path d="M23.304 10.4707C24.4834 9.29123 24.7906 7.56975 24.2252 6.10806L22.5662 7.76706H20.2329V5.43372L21.8919 3.77472C20.4302 3.20944 18.7088 3.51652 17.5293 4.69598C16.3494 5.87588 16.0425 7.59819 16.6087 9.06025L9.06025 16.6087C7.59821 16.0425 5.87588 16.3494 4.69598 17.5293C3.51652 18.7088 3.20944 20.4302 3.77472 21.8919L5.43372 20.2329H7.76706V22.5662L6.10806 24.2252C7.56975 24.7906 9.29123 24.4834 10.4707 23.304C11.6497 22.125 11.957 20.4044 11.3926 18.943L18.943 11.3926C20.4044 11.957 22.125 11.6497 23.304 10.4707Z" stroke="#222222" stroke-width="1.8" stroke-linejoin="round"/>
<path d="M13.7637 16.9192L20.3017 23.4574C20.9174 24.0731 21.9159 24.0731 22.5316 23.4574L23.4553 22.5337C24.0712 21.9178 24.0712 20.9195 23.4553 20.3037L16.9173 13.7656" stroke="#222222" stroke-width="1.8" stroke-linejoin="round"/>
</svg>
