<svg width="32" height="32" viewBox="0 0 32 32" fill="none" xmlns="http://www.w3.org/2000/svg">
<path d="M14.6667 14.6667L8 8" stroke="#222222" stroke-width="1.5"/>
<path d="M6.66797 10.0013L10.0013 6.66797L6.0013 4.66797L4.66797 6.0013L6.66797 10.0013Z" stroke="#222222" stroke-width="1.5" stroke-linejoin="round"/>
<path d="M26.6332 11.9665C27.9811 10.6185 28.3321 8.65114 27.686 6.98064L25.79 8.87664H23.1233V6.20997L25.0193 4.31397C23.3488 3.66793 21.3815 4.01888 20.0335 5.36684C18.6851 6.71529 18.3343 8.68365 18.9813 10.3546L10.3546 18.9813C8.68366 18.3343 6.71529 18.6851 5.36684 20.0335C4.01888 21.3815 3.66793 23.3488 4.31397 25.0193L6.20997 23.1233H8.87664V25.79L6.98064 27.686C8.65114 28.3321 10.6185 27.9811 11.9665 26.6332C13.3139 25.2857 13.6652 23.3193 13.0201 21.6492L21.6492 13.0201C23.3193 13.6652 25.2857 13.3139 26.6332 11.9665Z" stroke="#222222" stroke-width="1.5" stroke-linejoin="round"/>
<path d="M15.7305 19.3346L23.2025 26.8067C23.9062 27.5105 25.0473 27.5105 25.751 26.8067L26.8066 25.7511C27.5105 25.0473 27.5105 23.9063 26.8066 23.2026L19.3346 15.7305" stroke="#222222" stroke-width="1.5" stroke-linejoin="round"/>
</svg>
