<svg width="100" height="100" viewBox="0 0 100 100" fill="none" xmlns="http://www.w3.org/2000/svg">
<path d="M18.294 28.1676L9.36807 21.4275C18.3162 8.48703 33.1631 0 49.939 0C66.715 0 81.5544 8.48703 90.51 21.4275L81.5841 28.1676C74.6838 17.9712 63.0868 11.2836 49.9465 11.2836C36.7913 11.2836 25.1943 17.9712 18.294 28.1676ZM71.2707 18.661L69.4009 21.1951C75.5964 25.4761 80.3376 31.7514 82.7267 39.0988L85.932 32.3812L92.0904 35.3801C90.8216 31.6614 89.0854 28.1676 86.956 24.9663L81.5841 28.1826C78.913 24.2315 75.0399 21.285 71.2707 18.661ZM7.76541 35.4326L14.0573 32.3737L17.1959 38.9564C19.5998 31.6689 24.3188 25.4461 30.4771 21.1876L28.6074 18.6535C24.8307 21.2776 20.9651 24.224 18.3014 28.1601L12.9295 24.9438C10.7778 28.1751 9.03418 31.6989 7.76541 35.4326ZM86.9485 75.0412C89.1077 71.7949 90.8587 68.2561 92.1349 64.4849L85.9246 67.5064L82.7416 60.8337C80.3524 68.2111 75.6038 74.5089 69.3935 78.8049L71.2633 81.339C75.0399 78.7149 78.8611 75.821 81.5247 71.8848H81.5322C74.6244 82.0438 63.0497 88.7164 49.9316 88.7164C37.4665 88.7164 26.4037 82.6961 19.4069 73.3843C21.9816 76.5557 25.3501 79.0748 28.6 81.339L30.4697 78.8049C24.2965 74.5389 19.5702 68.2861 17.1662 60.9687L14.0499 67.5064L7.70605 64.4249C8.98224 68.2186 10.7407 71.7799 12.9147 75.0412L18.2272 71.8174C18.2346 71.8324 18.242 71.8399 18.2495 71.8548L9.35323 78.5725C18.3014 91.513 33.1482 100 49.9242 100C66.7002 100 81.5396 91.513 90.4952 78.5725L82.0367 72.1922L86.9485 75.0412Z" fill="#515150"/>
<path d="M47.196 42.4922L39.6353 34.9574C40.2957 32.4382 39.6428 29.6417 37.6914 27.6699C35.1093 25.0608 31.1101 24.7534 28.1942 26.7552L33.7886 29.8292C33.7886 29.8292 35.4729 30.7888 33.8925 34.0577C32.3863 37.1841 30.3236 36.2694 30.3236 36.2694L24.9072 33.2929C24.974 35.1373 25.7011 36.9667 27.096 38.3762C29.4481 40.7528 32.9799 41.2177 35.7919 39.7707L45.5934 49.5398L27.6599 67.421C26.4728 68.6206 26.4728 70.5624 27.6599 71.762C28.8471 72.9616 30.7688 72.9616 31.9559 71.762L47.1886 56.5723V42.4922H47.196ZM31.6146 69.8876L30.9172 70.5849C30.331 71.1772 29.3813 71.1772 28.8026 70.5849C28.2164 69.9926 28.2164 69.0329 28.8026 68.4481L29.5 67.7509C30.0862 67.1586 31.0359 67.1586 31.6146 67.7509C32.2008 68.3357 32.2008 69.2953 31.6146 69.8876Z" fill="#515150"/>
<path d="M54.2587 49.5366L64.0601 39.7675C66.8722 41.2145 70.404 40.7572 72.756 38.373C74.1509 36.9635 74.8781 35.1342 74.9449 33.2898L69.5285 36.2663C69.5285 36.2663 67.4658 37.1884 65.9596 34.0545C64.3866 30.7857 66.0635 29.826 66.0635 29.826L71.6579 26.7521C68.742 24.7578 64.7428 25.0577 62.1607 27.6668C60.2093 29.6386 59.5564 32.4351 60.2167 34.9542L52.6338 42.5191V56.5542L67.8961 71.7663C69.0833 72.9659 71.005 72.9659 72.1921 71.7663C73.3793 70.5668 73.3793 68.6249 72.1921 67.4254L54.2587 49.5366ZM71.0569 70.5893C70.4708 71.1816 69.521 71.1816 68.9423 70.5893L68.2449 69.892C67.6587 69.2997 67.6587 68.34 68.2449 67.7553C68.831 67.163 69.7807 67.163 70.3595 67.7553L71.0569 68.4525C71.6357 69.0373 71.6357 69.997 71.0569 70.5893Z" fill="#515150"/>
<path d="M52.0603 15.4203C52.0603 14.2208 51.0957 13.2461 49.9086 13.2461C48.7214 13.2461 47.7568 14.2208 47.7568 15.4203V68.2019H52.0528V15.4203H52.0603ZM49.9605 66.26C49.9605 66.6499 49.6489 66.9648 49.263 66.9648C48.8772 66.9648 48.5656 66.6499 48.5656 66.26V15.1054C48.5656 14.7156 48.8772 14.4007 49.263 14.4007C49.6489 14.4007 49.9605 14.7156 49.9605 15.1054V66.26Z" fill="#515150"/>
<path d="M60.9211 82.5H60.513H39.3074H39.0032C38.4913 82.5 38.0684 82.9199 38.0684 83.4447C38.0684 83.9695 38.4839 84.3893 39.0032 84.3893H60.9211C61.433 84.3893 61.8559 83.9695 61.8559 83.4447C61.8559 82.9199 61.4404 82.5 60.9211 82.5ZM52.9375 83.8195H39.3594C39.1145 83.8195 38.9142 83.6171 38.9142 83.3697C38.9142 83.1223 39.1145 82.9199 39.3594 82.9199H52.9449C53.1897 82.9199 53.3901 83.1223 53.3901 83.3697C53.3901 83.6171 53.1823 83.8195 52.9375 83.8195Z" fill="#515150"/>
<path d="M60.5206 81.6187V79.9617C60.5206 75.1634 57.3969 71.1223 53.0934 69.7578H46.7273C42.4313 71.1298 39.3076 75.1709 39.3076 79.9617V81.6187H60.5206ZM44.9021 72.0595C46.3786 71.5197 47.7809 71.6696 48.0406 72.3894C48.3003 73.1091 47.3135 74.1288 45.837 74.6686C45.7331 74.7061 45.6366 74.7286 45.5402 74.7586C46.0076 74.7511 46.3712 74.886 46.4825 75.1559C46.6828 75.6432 46.0373 76.3705 45.0431 76.7903C44.0488 77.2027 43.0842 77.1502 42.8839 76.6629C42.6836 76.1756 43.3291 75.4483 44.3233 75.0285C44.3827 75.006 44.4421 74.9835 44.5014 74.961C43.5962 75.036 42.8839 74.8185 42.7058 74.3312C42.4462 73.619 43.4256 72.5993 44.9021 72.0595Z" fill="#515150"/>
<path d="M19.1872 21.4658L15.3599 17.659L16.1742 16.8404L20.0015 20.6471L19.1872 21.4658ZM21.651 18.9887L17.8238 15.1819L18.638 14.3633L22.4653 18.17L21.651 18.9887ZM17.2609 18.7884L19.7141 16.3219L20.3414 16.9458L17.8881 19.4123L17.2609 18.7884ZM26.6606 14.897C26.3281 15.119 25.983 15.2682 25.6254 15.3447C25.2719 15.4183 24.9233 15.4227 24.5794 15.3577C24.237 15.2858 23.9132 15.1474 23.6081 14.9424C23.3044 14.7305 23.0374 14.452 22.8071 14.1069C22.5018 13.6496 22.3331 13.1853 22.301 12.714C22.2661 12.2385 22.3573 11.79 22.5747 11.3685C22.7963 10.9442 23.1295 10.5836 23.5743 10.2866C24.0274 9.98418 24.4903 9.81341 24.963 9.77432C25.4357 9.73524 25.8849 9.82302 26.3106 10.0376C26.7405 10.2495 27.1081 10.5841 27.4133 11.0414C27.6408 11.3823 27.7921 11.735 27.8672 12.0995C27.9436 12.4571 27.9473 12.8093 27.8782 13.1559C27.8104 13.4955 27.6727 13.8158 27.4649 14.1168C27.2613 14.4149 26.9932 14.675 26.6606 14.897ZM26.1466 14.1404C26.4085 13.9656 26.5948 13.7451 26.7056 13.4788C26.8163 13.2126 26.8501 12.9256 26.807 12.6179C26.7652 12.3032 26.6403 11.99 26.4322 11.6782C26.2268 11.3706 25.9917 11.1399 25.7269 10.9862C25.462 10.8325 25.1882 10.7598 24.9054 10.7683C24.6226 10.7768 24.3482 10.8698 24.0821 11.0474C23.8202 11.2222 23.6311 11.4386 23.5148 11.6965C23.3985 11.9544 23.3605 12.2352 23.4009 12.5387C23.4426 12.8354 23.5676 13.1396 23.7757 13.4514C23.9866 13.7673 24.2272 14.0063 24.4977 14.1684C24.7653 14.3262 25.0433 14.4051 25.3316 14.4049C25.6172 14.4006 25.8889 14.3124 26.1466 14.1404ZM31.1071 11.9432L29.2307 6.88174L30.9178 6.25625L34.1325 10.6137L33.5209 10.8404L33.1181 5.4405L34.8123 4.8124L36.6888 9.87387L35.6203 10.27L33.8559 5.51083L34.0386 5.44307L34.4322 10.7105L33.3145 11.1249L30.209 6.91085L30.3847 6.8457L32.1335 11.5627L31.1071 11.9432ZM39.2616 9.01003L38.5724 3.65609L39.7176 3.50868L40.4067 8.86262L39.2616 9.01003ZM39.797 8.94111L39.684 8.06366L43.1343 7.61953L43.2473 8.49698L39.797 8.94111ZM39.5002 6.63594L39.3892 5.77336L42.5793 5.36273L42.6903 6.22531L39.5002 6.63594ZM39.2207 4.46462L39.1078 3.58717L42.4689 3.15453L42.5818 4.03198L39.2207 4.46462ZM49.2883 8.17893L49.3681 2.78141L51.782 2.81709C52.1718 2.82286 52.5107 2.89535 52.7985 3.03457C53.0865 3.1688 53.3087 3.35704 53.465 3.59929C53.6214 3.84155 53.6972 4.1226 53.6925 4.44245C53.6879 4.75731 53.6038 5.0335 53.4403 5.27102C53.2769 5.50355 53.0493 5.68514 52.7574 5.8158C52.4656 5.94145 52.1248 6.0014 51.735 5.99563L50.2357 5.97347L50.2482 5.12636L51.7175 5.14808C51.9924 5.15214 52.2033 5.09277 52.35 4.96997C52.5019 4.84225 52.5795 4.66344 52.5829 4.43355C52.5864 4.19866 52.5165 4.02017 52.3734 3.89808C52.2303 3.77099 52.0188 3.70538 51.7389 3.70124L50.5095 3.68307L50.4428 8.19599L49.2883 8.17893ZM52.3319 8.22392L50.2069 5.38818L51.4288 5.40625L53.8912 8.24698L52.3319 8.22392ZM56.318 8.34149L57.241 3.02287L58.3786 3.22029L57.4556 8.53891L56.318 8.34149ZM56.8498 8.43379L57.0011 7.56213L60.4287 8.15695L60.2774 9.02861L56.8498 8.43379ZM57.2472 6.14383L57.3959 5.28694L60.5649 5.8369L60.4162 6.69378L57.2472 6.14383ZM57.6216 3.98684L57.7728 3.11517L61.1117 3.69461L60.9605 4.56627L57.6216 3.98684ZM62.882 9.55356L64.8075 4.51052L67.2029 5.42512C67.5765 5.56774 67.8714 5.75524 68.0876 5.98761C68.3085 6.22176 68.4468 6.4832 68.5024 6.77194C68.5627 7.06247 68.5331 7.36416 68.4136 7.67701C68.2942 7.98987 68.1143 8.23684 67.8739 8.41793C67.6336 8.59903 67.3522 8.70558 67.0296 8.73759C66.7135 8.76671 66.3711 8.71085 66.0022 8.57001L64.4612 7.98168L64.7768 7.15518L66.2617 7.72212C66.5092 7.81661 66.7265 7.822 66.9136 7.73828C67.1072 7.65168 67.2467 7.49632 67.3323 7.27218C67.4179 7.04805 67.4165 6.84153 67.3281 6.65263C67.2444 6.46551 67.0788 6.32471 66.8313 6.23022L65.5706 5.74886L63.9607 9.96539L62.882 9.55356ZM68.6678 11.8L73.1744 8.25427L74.0128 8.78003L69.6396 12.4094L68.6678 11.8ZM72.0216 13.903L73.3903 8.38969L74.2669 8.93935L73.0379 14.5403L72.0216 13.903ZM70.6429 10.5695L73.2091 12.1787L72.7311 12.9409L70.1649 11.3317L70.6429 10.5695ZM75.1583 15.9372L78.6884 11.8534L79.5619 12.6084L76.0318 16.6923L75.1583 15.9372ZM78.0605 18.4964L82.021 14.8285L83.6614 16.5997C83.9263 16.8858 84.1078 17.181 84.2057 17.4854C84.3074 17.7864 84.3245 18.077 84.2572 18.3574C84.1898 18.6378 84.0388 18.8866 83.8041 19.104C83.5731 19.318 83.3152 19.4478 83.0305 19.4935C82.7495 19.5357 82.461 19.4964 82.165 19.3754C81.8726 19.251 81.594 19.0458 81.3291 18.7597L80.3102 17.6596L80.9318 17.0839L81.9303 18.1621C82.1171 18.3638 82.3056 18.4753 82.4958 18.4968C82.693 18.5185 82.876 18.4512 83.0447 18.295C83.217 18.1354 83.2979 17.9616 83.2875 17.7738C83.2807 17.5825 83.1822 17.3842 82.992 17.1789L82.1565 16.2767L78.845 19.3436L78.0605 18.4964ZM80.1288 20.7297L80.7138 17.2347L81.5442 18.1313L81.1885 21.8739L80.1288 20.7297Z" fill="white"/>
<path d="M21.1713 86.2403L26.1568 83.4072L26.9073 84.0522L22.0413 86.988L21.1713 86.2403ZM24.1735 88.8205L26.3501 83.5733L27.1348 84.2477L25.0833 89.6024L24.1735 88.8205ZM23.308 85.3185L25.6051 87.2928L25.0187 87.9751L22.7216 86.0008L23.308 85.3185ZM27.6667 91.3267L28.9005 85.8555L29.9288 86.4128L28.6822 91.3568L28.3592 91.1818L31.702 87.3737L32.8556 87.9988L31.4771 92.8714L31.1607 92.6999L34.6287 88.9597L35.6109 89.4919L31.7008 93.5128L30.5671 92.8984L31.8661 88.0936L32.1298 88.2365L28.8005 91.9411L27.6667 91.3267ZM34.4448 94.9512L37.6873 90.2218L38.6445 90.4733L35.5542 95.2427L34.4448 94.9512ZM38.2735 95.9571L37.9338 90.2866L38.9345 90.5495L39.4337 96.2619L38.2735 95.9571ZM35.9625 93.1872L38.892 93.9569L38.6634 94.827L35.7339 94.0574L35.9625 93.1872ZM41.7827 96.8078L42.0832 91.4181L44.4936 91.5525C44.8828 91.5742 45.2184 91.6604 45.5004 91.8113C45.7826 91.9572 45.9969 92.1544 46.1432 92.4028C46.2896 92.6513 46.3538 92.9352 46.336 93.2546C46.3185 93.569 46.2232 93.8415 46.0502 94.0721C45.8774 94.2978 45.6425 94.4699 45.3456 94.5885C45.0489 94.7022 44.7059 94.7481 44.3166 94.7264L42.8195 94.6429L42.8667 93.7971L44.3339 93.8789C44.6083 93.8942 44.8214 93.8435 44.9731 93.7268C45.13 93.6054 45.2149 93.4299 45.2277 93.2003C45.2408 92.9658 45.1783 92.7846 45.0403 92.6567C44.9025 92.5239 44.6939 92.4497 44.4144 92.4341L43.1867 92.3657L42.9355 96.8721L41.7827 96.8078ZM44.8219 96.9772L42.8146 94.057L44.0348 94.125L46.379 97.064L44.8219 96.9772ZM49.5065 97.1621L49.4931 96.2625L50.8575 96.2422C51.2473 96.2364 51.576 96.154 51.8435 95.9951C52.116 95.831 52.3202 95.6105 52.456 95.3336C52.5969 95.0565 52.6646 94.7406 52.6593 94.3858C52.6541 94.0359 52.5796 93.7296 52.4357 93.4668C52.2918 93.204 52.0813 92.9997 51.8042 92.8539C51.5321 92.708 51.1986 92.638 50.8038 92.6439L49.4619 92.6639L49.4485 91.7643L50.7904 91.7443C51.3951 91.7353 51.924 91.8373 52.3771 92.0505C52.8301 92.2587 53.182 92.5634 53.433 92.9646C53.6888 93.3607 53.8208 93.8336 53.829 94.3833C53.8372 94.9331 53.7194 95.4147 53.4757 95.8283C53.2318 96.2368 52.8867 96.5569 52.4402 96.7885C51.9987 97.015 51.4781 97.1327 50.8784 97.1417L49.5065 97.1621ZM48.8018 97.1726L48.7213 91.7751L49.8758 91.7579L49.9563 97.1554L48.8018 97.1726ZM59.6701 96.5855L59.4317 95.718C59.8015 95.1964 60.107 94.7522 60.3482 94.3852C60.5929 94.0121 60.7795 93.6912 60.9078 93.4227C61.041 93.1528 61.124 92.9174 61.1569 92.7166C61.1898 92.5158 61.1818 92.3262 61.1327 92.1479C61.0744 91.9358 60.9715 91.7878 60.8241 91.704C60.6801 91.614 60.5069 91.5968 60.3045 91.6524C60.0924 91.7107 59.9344 91.8242 59.8304 91.9927C59.7264 92.1613 59.6887 92.3634 59.7173 92.5992L58.604 92.9053C58.5218 92.3991 58.6158 91.9586 58.886 91.5837C59.1548 91.2039 59.5639 90.9385 60.1134 90.7875C60.6724 90.6338 61.1483 90.6584 61.5411 90.8615C61.9325 91.0597 62.1985 91.4143 62.3389 91.9251C62.4052 92.1661 62.4278 92.4087 62.4068 92.6529C62.3906 92.8958 62.3234 93.1605 62.2052 93.447C62.087 93.7335 61.908 94.0626 61.668 94.4344C61.4316 94.8001 61.127 95.2286 60.754 95.7199L60.3971 95.4681L63.2093 94.695L63.4438 95.548L59.6701 96.5855ZM67.7958 93.9314C67.392 94.1298 66.9791 94.2018 66.557 94.1474C66.1372 94.0864 65.745 93.9115 65.3804 93.6229C65.0136 93.3297 64.7101 92.9386 64.4699 92.4497C64.2296 91.9607 64.1089 91.4882 64.1076 91.0322C64.1041 90.5717 64.2087 90.1611 64.4213 89.8004C64.6362 89.4331 64.9455 89.1503 65.3493 88.9519C65.7575 88.7513 66.1704 88.6793 66.588 88.7359C67.0035 88.788 67.3924 88.9561 67.7547 89.2403C68.1149 89.52 68.4151 89.9043 68.6554 90.3933C68.8978 90.8867 69.0219 91.366 69.0276 91.831C69.0333 92.2959 68.9298 92.7143 68.7171 93.0862C68.5066 93.4513 68.1995 93.733 67.7958 93.9314ZM67.3726 93.0701C67.6014 92.9577 67.7523 92.7888 67.8254 92.5636C67.8985 92.3383 67.9093 92.0825 67.8576 91.796C67.806 91.5095 67.7074 91.2182 67.5619 90.9221C67.4165 90.626 67.2483 90.3745 67.0575 90.1675C66.8668 89.9606 66.6621 89.8217 66.4435 89.7508C66.2249 89.68 66.0012 89.7008 65.7725 89.8132C65.5437 89.9256 65.3916 90.0922 65.3163 90.313C65.2388 90.5293 65.2237 90.7762 65.2709 91.0537C65.3182 91.3312 65.4134 91.6157 65.5567 91.9073C65.7044 92.2079 65.8758 92.4662 66.071 92.6821C66.2662 92.8981 66.4753 93.0459 66.6983 93.1257C66.9235 93.1988 67.1483 93.1803 67.3726 93.0701ZM71.9429 91.7725L71.4067 91.0502C71.5627 90.4301 71.6867 89.9054 71.7788 89.476C71.8719 89.0396 71.9297 88.673 71.9521 88.3762C71.9786 88.0765 71.9708 87.827 71.9288 87.6279C71.8868 87.4287 71.8107 87.2549 71.7005 87.1064C71.5694 86.9298 71.4199 86.8291 71.2521 86.8043C71.0853 86.7725 70.9176 86.8192 70.7491 86.9443C70.5725 87.0754 70.4662 87.2383 70.4303 87.4331C70.3943 87.6278 70.4323 87.8299 70.5443 88.0394L69.6172 88.7276C69.3575 88.2855 69.2857 87.8408 69.4018 87.3935C69.515 86.9422 69.8004 86.5468 70.2579 86.2071C70.7234 85.8615 71.176 85.7123 71.6156 85.7595C72.0523 85.8026 72.4285 86.0369 72.7443 86.4623C72.8932 86.663 73.0021 86.8809 73.071 87.1162C73.1438 87.3485 73.1769 87.6195 73.1704 87.9294C73.1639 88.2393 73.1161 88.6109 73.027 89.0443C72.9389 89.4707 72.8099 89.9804 72.6401 90.5734L72.2162 90.4678L74.558 88.7294L75.0853 89.4398L71.9429 91.7725ZM78.4002 86.6996C78.0036 87.0876 77.5789 87.3039 77.126 87.3484C76.6731 87.393 76.2362 87.261 75.8155 86.9524L76.6354 86.1502C76.8247 86.2866 77.0238 86.347 77.2325 86.3316C77.4377 86.3127 77.6135 86.2315 77.76 86.0882C77.9279 85.9239 78.006 85.7357 77.9941 85.5235C77.9824 85.3042 77.8612 85.0767 77.6304 84.8409C77.4102 84.6158 77.1942 84.4915 76.9824 84.468C76.7671 84.4409 76.5755 84.5095 76.4076 84.6738C76.3111 84.7682 76.2427 84.8806 76.2024 85.0109C76.1586 85.1377 76.1571 85.279 76.1978 85.435L75.4476 86.1691L73.5275 83.8101L75.7461 81.6393L76.3648 82.2717L74.4356 84.1593L74.8174 83.6704L75.9007 84.9705L75.596 85.1952C75.5456 84.9578 75.5498 84.7369 75.6085 84.5326C75.6674 84.3211 75.8004 84.1141 76.0076 83.9113C76.2541 83.6701 76.5227 83.5122 76.8133 83.4376C77.104 83.363 77.3955 83.3715 77.6879 83.4631C77.9802 83.5546 78.2558 83.7326 78.5144 83.9969C78.7871 84.2756 78.9606 84.5708 79.035 84.8827C79.1093 85.1945 79.0935 85.5072 78.9876 85.8206C78.8782 86.1304 78.6824 86.4234 78.4002 86.6996Z" fill="white"/>
</svg>
