<svg width="87" height="100" viewBox="0 0 87 100" fill="none" xmlns="http://www.w3.org/2000/svg">
<path d="M43.2707 5.15234L4.43848 27.5704V72.4128L43.2707 94.8309L82.1028 72.4128V27.5704L43.2707 5.15234ZM43.2707 91.0079L31.2565 84.072H55.2912L43.2707 91.0079ZM81.7605 72.2163H4.78083V27.7733L43.2707 5.54542L81.7605 27.7669V72.2163Z" fill="#515150"/>
<path d="M26.3621 44.4179C26.3621 41.4635 27.1229 38.6866 28.4542 36.2711H22.742L18.8746 35.1997L17.3974 50.5994L17.4164 34.7939H14.4176L12.4586 50.6438V34.3628H11.8626V33.8683C11.8626 33.621 11.6661 33.4245 11.4188 33.4245H9.93526C9.688 33.4245 9.49146 33.621 9.49146 33.8683V34.3628H8.89551V54.4097H9.49146V54.9042C9.49146 55.1515 9.688 55.348 9.93526 55.348H11.4188C11.6661 55.348 11.8626 55.1515 11.8626 54.9042V54.4097H12.4586V53.9849H17.4101L22.742 52.5141H28.4289C27.1102 50.1112 26.3621 47.3533 26.3621 44.4179ZM11.4378 45.9205C11.4378 46.358 11.0828 46.7067 10.6517 46.7067C10.2206 46.7067 9.86552 46.3516 9.86552 45.9205V36.2457C9.86552 35.8083 10.2206 35.4596 10.6517 35.4596C11.0828 35.4596 11.4378 35.8146 11.4378 36.2457V45.9205ZM77.0182 34.3628V33.8683C77.0182 33.621 76.8217 33.4245 76.5745 33.4245H75.0909C74.8436 33.4245 74.6471 33.621 74.6471 33.8683V34.3628H74.0512V50.6501L72.0921 34.8002H69.0933L69.1123 50.6057L67.6351 35.206L63.7678 36.2774H58.0491C59.3805 38.693 60.1413 41.4699 60.1413 44.4243C60.1413 47.3597 59.3932 50.1176 58.0745 52.5204H63.7678L69.0997 53.9913H74.0512V54.416H74.6471V54.9106C74.6471 55.1578 74.8436 55.3544 75.0909 55.3544H76.5745C76.8217 55.3544 77.0182 55.1578 77.0182 54.9106V54.416H77.6142V34.3628H77.0182ZM76.6505 45.9205C76.6505 46.358 76.2955 46.7067 75.8644 46.7067C75.4333 46.7067 75.0782 46.3516 75.0782 45.9205V36.2457C75.0782 35.8083 75.4333 35.4596 75.8644 35.4596C76.2955 35.4596 76.6505 35.8146 76.6505 36.2457V45.9205ZM57.6244 44.4053C57.6244 42.6744 57.301 41.0261 56.7368 39.4855C57.3708 38.6422 57.4785 37.4694 56.9143 36.493C56.35 35.523 55.2786 35.0285 54.2325 35.1553C52.1086 32.632 49.1288 30.8631 45.7496 30.2672C45.3375 29.2908 44.3739 28.6061 43.2453 28.6061C42.1168 28.6061 41.1532 29.2908 40.7411 30.2672C37.3619 30.8631 34.3884 32.6383 32.2582 35.1553C31.2121 35.0285 30.1407 35.523 29.5764 36.493C29.0185 37.463 29.1263 38.6359 29.7539 39.4855C29.1897 41.0261 28.8663 42.6744 28.8663 44.4053C28.8663 46.1234 29.1833 47.7718 29.7413 49.2997C29.1199 50.1429 29.0122 51.3095 29.5701 52.2731C30.128 53.2368 31.1804 53.725 32.2138 53.6109C34.3441 56.1595 37.3429 57.9474 40.7537 58.5433C41.1785 59.4943 42.1295 60.16 43.2327 60.16C44.3422 60.16 45.2932 59.4943 45.7116 58.5433C49.1161 57.9474 52.1149 56.1595 54.2515 53.6109C55.2912 53.725 56.3437 53.2305 56.8953 52.2731C57.4532 51.3095 57.3454 50.1429 56.7241 49.2997C57.3074 47.7718 57.6244 46.1297 57.6244 44.4053ZM45.5784 32.7144C48.1968 33.2343 50.4982 34.61 52.1973 36.5437C51.9755 36.9431 51.8613 37.3869 51.855 37.8434L45.3819 41.584C45.1473 41.4065 44.8937 41.248 44.6211 41.1338V33.6654C45.0142 33.4308 45.3439 33.1075 45.5784 32.7144ZM46.7577 43.9424L53.2244 40.2082C53.6302 40.4365 54.0803 40.5569 54.5431 40.5632C54.9552 41.7678 55.1898 43.0612 55.1898 44.4053C55.1898 45.7366 54.9616 47.011 54.5558 48.2092C54.0867 48.2092 53.6302 48.3297 53.2181 48.5643L46.7577 44.83C46.7767 44.6906 46.8021 44.5447 46.8021 44.3989C46.8021 44.2468 46.7767 44.0946 46.7577 43.9424ZM45.2615 42.6174C45.2615 43.2958 44.3865 43.8473 43.3087 43.8473C42.231 43.8473 41.356 43.2958 41.356 42.6174C41.356 41.939 42.231 41.3874 43.3087 41.3874C44.3865 41.3938 45.2615 41.939 45.2615 42.6174ZM43.3087 29.145C44.2724 29.145 45.0522 29.6332 45.0522 30.2355C45.0522 30.8378 44.2724 31.3259 43.3087 31.3259C42.3451 31.3259 41.5653 30.8378 41.5653 30.2355C41.5653 29.6332 42.3451 29.145 43.3087 29.145ZM40.9249 32.7144C41.1595 33.1075 41.4892 33.4308 41.8823 33.6654V41.1275C41.6033 41.2416 41.356 41.4001 41.1215 41.5776L34.6484 37.8371C34.6484 37.3806 34.5279 36.9368 34.306 36.5374C36.0115 34.61 38.3129 33.2343 40.9249 32.7144ZM39.7457 44.8364L33.2853 48.5643C32.8795 48.3297 32.4167 48.2092 31.9476 48.2092C31.5418 47.011 31.3136 45.7366 31.3136 44.4053C31.3136 43.0612 31.5481 41.7678 31.9602 40.5632C32.4231 40.5569 32.8795 40.4365 33.2789 40.2082L39.752 43.9424C39.733 44.0946 39.7077 44.2468 39.7077 44.4053C39.7013 44.5511 39.733 44.6906 39.7457 44.8364ZM31.8334 35.5864C32.7971 35.5864 33.5769 36.0746 33.5769 36.6769C33.5769 37.2792 32.7971 37.7673 31.8334 37.7673C30.8698 37.7673 30.09 37.2792 30.09 36.6769C30.0963 36.0746 30.8761 35.5864 31.8334 35.5864ZM31.9983 50.9417C31.0346 50.9417 30.2548 50.4536 30.2548 49.8513C30.2548 49.249 31.0346 48.7608 31.9983 48.7608C32.962 48.7608 33.7418 49.249 33.7418 49.8513C33.7418 50.4472 32.962 50.9417 31.9983 50.9417ZM40.9059 56.0961C38.2875 55.5699 35.9861 54.1941 34.2933 52.2541C34.5216 51.8484 34.642 51.3919 34.6484 50.9291L41.0961 47.2075C41.337 47.3914 41.597 47.5626 41.8823 47.6767V55.1071C41.4828 55.348 41.1468 55.684 40.9059 56.0961ZM43.3087 57.4592C42.3451 57.4592 41.5653 56.971 41.5653 56.3687C41.5653 55.7664 42.3451 55.2783 43.3087 55.2783C44.2724 55.2783 45.0522 55.7664 45.0522 56.3687C45.0459 56.971 44.2661 57.4592 43.3087 57.4592ZM45.5975 56.0961C45.3629 55.6904 45.0269 55.348 44.6211 55.1134V47.6767C44.9064 47.5562 45.1663 47.3914 45.4073 47.2075L51.855 50.9291C51.855 51.3919 51.9818 51.8484 52.21 52.2541C50.5173 54.1878 48.2159 55.5699 45.5975 56.0961ZM54.6129 51.1066C53.6492 51.1066 52.8694 50.6184 52.8694 50.0161C52.8694 49.4138 53.6492 48.9256 54.6129 48.9256C55.5765 48.9256 56.3564 49.4138 56.3564 50.0161C56.3564 50.6121 55.5765 51.1066 54.6129 51.1066ZM54.6129 37.7737C53.6492 37.7737 52.8694 37.2855 52.8694 36.6832C52.8694 36.0809 53.6492 35.5927 54.6129 35.5927C55.5765 35.5927 56.3564 36.0809 56.3564 36.6832C56.3564 37.2792 55.5765 37.7737 54.6129 37.7737ZM43.2517 9.45312C38.465 9.45312 34.566 13.3459 34.566 18.1389C34.566 21.8794 36.9498 25.0684 40.2783 26.2857V28.7583H40.9313C41.5526 28.194 42.3704 27.858 43.2517 27.858C44.1329 27.858 44.9508 28.194 45.5721 28.7583H46.2251V26.2857C49.5536 25.0684 51.9374 21.8794 51.9374 18.1389C51.9374 13.3459 48.0447 9.45312 43.2517 9.45312ZM40.1832 22.6275H38.2051V19.9838H40.1832V22.6275ZM42.8269 22.6275H40.8488V19.9838H42.8269V22.6275ZM45.4707 22.6275H43.4926V19.9838H45.4707V22.6275ZM48.1081 22.6275H46.13V19.9838H48.1081V22.6275ZM47.3156 18.0691C47.2966 16.8201 46.7133 15.7107 45.8067 14.9816C45.5024 14.7343 45.1473 14.5378 44.7796 14.3856L44.1012 17.5239C44.228 17.6951 44.3041 17.9043 44.3041 18.1389C44.3041 18.7158 43.835 19.1849 43.258 19.1849C42.6811 19.1849 42.2119 18.7158 42.2119 18.1389C42.2119 17.6697 42.5226 17.2766 42.9474 17.1435L44.4056 14.2588C44.0378 14.151 43.6574 14.0813 43.258 14.0813C42.2753 14.0813 41.3751 14.4363 40.6713 15.0196C39.7901 15.755 39.2195 16.8518 39.2005 18.0818H35.8973C35.9164 15.9389 36.861 14.0242 38.3382 12.6865C39.6443 11.5073 41.3624 10.7845 43.258 10.7845C45.1347 10.7845 46.8464 11.4946 48.1461 12.6548C49.6424 13.9925 50.5997 15.9262 50.6187 18.0818H47.3156V18.0691Z" fill="#515150"/>
<path d="M14.0361 72.668V61.7589H16.9978V66.0202H20.9182V61.7589H23.8799V72.668H20.9182V68.4066H16.9978V72.668H14.0361ZM40.021 67.2134C40.021 68.4279 39.7848 69.4524 39.3125 70.2869C38.8402 71.1179 38.2028 71.7482 37.4002 72.1779C36.5977 72.604 35.7028 72.8171 34.7156 72.8171C33.7213 72.8171 32.8228 72.6023 32.0203 72.1726C31.2213 71.7393 30.5856 71.1072 30.1133 70.2763C29.6446 69.4418 29.4102 68.4208 29.4102 67.2134C29.4102 65.9989 29.6446 64.9762 30.1133 64.1452C30.5856 63.3107 31.2213 62.6804 32.0203 62.2543C32.8228 61.8246 33.7213 61.6097 34.7156 61.6097C35.7028 61.6097 36.5977 61.8246 37.4002 62.2543C38.2028 62.6804 38.8402 63.3107 39.3125 64.1452C39.7848 64.9762 40.021 65.9989 40.021 67.2134ZM36.9741 67.2134C36.9741 66.56 36.8871 66.0096 36.7131 65.5621C36.5426 65.1112 36.2887 64.7702 35.9514 64.5394C35.6176 64.305 35.2056 64.1879 34.7156 64.1879C34.2255 64.1879 33.8118 64.305 33.4745 64.5394C33.1407 64.7702 32.8867 65.1112 32.7127 65.5621C32.5423 66.0096 32.4571 66.56 32.4571 67.2134C32.4571 67.8668 32.5423 68.419 32.7127 68.87C32.8867 69.3175 33.1407 69.6584 33.4745 69.8928C33.8118 70.1236 34.2255 70.239 34.7156 70.239C35.2056 70.239 35.6176 70.1236 35.9514 69.8928C36.2887 69.6584 36.5426 69.3175 36.7131 68.87C36.8871 68.419 36.9741 67.8668 36.9741 67.2134ZM45.5579 61.7589H49.244L51.7795 67.9379H51.9074L54.4429 61.7589H58.129V72.668H55.2312V66.3612H55.146L52.717 72.5827H50.9699L48.5409 66.3185H48.4557V72.668H45.5579V61.7589ZM63.6992 72.668V61.7589H71.5614V64.1452H66.6609V66.0202H71.1566V68.4066H66.6609V70.2816H71.5401V72.668H63.6992Z" fill="#515150"/>
<path d="M24.9659 82.2119V75.5452H27.8435C28.3383 75.5452 28.7712 75.6353 29.1423 75.8154C29.5134 75.9956 29.8021 76.2549 30.0082 76.5934C30.2144 76.932 30.3175 77.3378 30.3175 77.8109C30.3175 78.2883 30.2111 78.6909 29.9985 79.0186C29.788 79.3462 29.4917 79.5936 29.1098 79.7607C28.73 79.9278 28.2862 80.0114 27.7784 80.0114H26.0597V78.6051H27.4138C27.6265 78.6051 27.8077 78.5791 27.9574 78.527C28.1093 78.4728 28.2255 78.387 28.3057 78.2699C28.3882 78.1527 28.4294 77.9997 28.4294 77.8109C28.4294 77.6199 28.3882 77.4647 28.3057 77.3454C28.2255 77.2238 28.1093 77.1349 27.9574 77.0784C27.8077 77.0199 27.6265 76.9906 27.4138 76.9906H26.7758V82.2119H24.9659ZM28.8722 79.152L30.5388 82.2119H28.5727L26.9451 79.152H28.8722ZM31.9223 82.2119V75.5452H36.727V77.0036H33.7322V78.1494H36.4796V79.6077H33.7322V80.7536H36.7139V82.2119H31.9223ZM38.4579 82.2119V75.5452H41.3355C41.8303 75.5452 42.2633 75.6429 42.6344 75.8382C43.0055 76.0335 43.2941 76.3081 43.5002 76.6618C43.7064 77.0155 43.8095 77.4289 43.8095 77.902C43.8095 78.3794 43.7032 78.7929 43.4905 79.1423C43.28 79.4916 42.9838 79.7607 42.6018 79.9495C42.222 80.1383 41.7782 80.2327 41.2704 80.2327H39.5517V78.8265H40.9058C41.1185 78.8265 41.2997 78.7896 41.4495 78.7158C41.6014 78.6399 41.7175 78.5324 41.7978 78.3936C41.8802 78.2547 41.9215 78.0908 41.9215 77.902C41.9215 77.711 41.8802 77.5483 41.7978 77.4137C41.7175 77.277 41.6014 77.1729 41.4495 77.1012C41.2997 77.0275 41.1185 76.9906 40.9058 76.9906H40.2678V82.2119H38.4579ZM46.2061 82.2119H44.253L46.4535 75.5452H48.9275L51.128 82.2119H49.1749L47.7166 77.3812H47.6645L46.2061 82.2119ZM45.8416 79.5817H49.5134V80.9359H45.8416V79.5817ZM54.4133 75.5452V82.2119H52.6034V75.5452H54.4133ZM56.1044 82.2119V75.5452H58.982C59.4768 75.5452 59.9098 75.6353 60.2808 75.8154C60.6519 75.9956 60.9406 76.2549 61.1467 76.5934C61.3529 76.932 61.456 77.3378 61.456 77.8109C61.456 78.2883 61.3496 78.6909 61.137 79.0186C60.9265 79.3462 60.6302 79.5936 60.2483 79.7607C59.8685 79.9278 59.4247 80.0114 58.9169 80.0114H57.1982V78.6051H58.5523C58.765 78.6051 58.9462 78.5791 59.0959 78.527C59.2479 78.4728 59.364 78.387 59.4443 78.2699C59.5267 78.1527 59.568 77.9997 59.568 77.8109C59.568 77.6199 59.5267 77.4647 59.4443 77.3454C59.364 77.2238 59.2479 77.1349 59.0959 77.0784C58.9462 77.0199 58.765 76.9906 58.5523 76.9906H57.9143V82.2119H56.1044ZM60.0107 79.152L61.6773 82.2119H59.7112L58.0836 79.152H60.0107Z" fill="white"/>
<path d="M43.3018 0L0 24.9984V75.0016L43.3018 100L86.6037 75.0016V24.9984L43.3018 0ZM86.2613 74.7987L43.3018 99.6006L0.342357 74.7987V25.195L43.3018 0.393077L86.2613 25.195V74.7987Z" fill="#515150"/>
<path d="M43.3026 1.18262L1.03418 25.5851V74.3963L43.3026 98.7988L85.571 74.3963V25.5851L43.3026 1.18262ZM82.8259 72.8114L43.3026 95.6288L3.77938 72.8114V27.1764L43.3026 4.35893L82.8259 27.1764V72.8114Z" fill="#515150"/>
</svg>
