<svg width="171" height="40" viewBox="0 0 171 40" fill="none" xmlns="http://www.w3.org/2000/svg">
<path d="M22.0251 32.112C22.061 28.4406 21.1302 25.455 19.9462 25.4434C18.7621 25.4319 17.7732 28.3988 17.7373 32.0701C17.7014 35.7416 18.6322 38.7272 19.8162 38.7388C21.0003 38.7504 21.9893 35.7835 22.0251 32.112Z" fill="#FF5E48"/>
<path d="M15.1572 31.2777C17.1725 28.2086 18.0038 25.1937 17.014 24.5438C16.0242 23.8939 13.5881 25.855 11.5729 28.9241C9.5576 31.9933 8.72632 35.0081 9.71608 35.6581C10.7059 36.308 13.1419 34.3469 15.1572 31.2777Z" fill="#FF5E48"/>
<path d="M9.82297 26.8741C13.1777 25.382 15.5071 23.2952 15.0258 22.2133C14.5446 21.1314 11.435 21.464 8.08025 22.9563C4.72556 24.4484 2.39618 26.5352 2.87742 27.6171C3.35865 28.699 6.46828 28.3664 9.82297 26.8741Z" fill="#FF5E48"/>
<path d="M14.6231 19.1797C14.8032 18.0094 12.0075 16.6079 8.37869 16.0493C4.74979 15.4908 1.662 15.9868 1.48187 17.1571C1.30174 18.3274 4.09749 19.7289 7.72635 20.2874C11.3552 20.846 14.443 20.35 14.6231 19.1797Z" fill="#FF5E48"/>
<path d="M15.9261 16.3919C16.7102 15.5047 15.1157 12.8144 12.3646 10.383C9.61344 7.95155 6.74754 6.69974 5.9634 7.58699C5.17925 8.47425 6.77381 11.1646 9.52496 13.596C12.2761 16.0275 15.142 17.2792 15.9261 16.3919Z" fill="#FF5E48"/>
<path d="M18.5215 14.7621C19.6608 14.4397 19.774 11.3143 18.7744 7.78146C17.7747 4.24859 16.0406 1.64599 14.9012 1.9684C13.7619 2.29081 13.6487 5.41612 14.6484 8.94903C15.648 12.4818 17.3821 15.0845 18.5215 14.7621Z" fill="#FF5E48"/>
<path d="M25.5668 9.05921C26.636 5.54673 26.5845 2.41979 25.4517 2.07498C24.3189 1.73017 22.5338 4.29805 21.4646 7.81053C20.3955 11.323 20.447 14.4499 21.5798 14.7947C22.7126 15.1395 24.4977 12.5717 25.5668 9.05921Z" fill="#FF5E48"/>
<path d="M30.5996 13.8051C33.3978 11.4279 35.0447 8.76923 34.278 7.86686C33.5113 6.96446 30.6215 8.16003 27.8234 10.5372C25.0252 12.9144 23.3784 15.573 24.1451 16.4754C24.9117 17.3778 27.8016 16.1823 30.5996 13.8051Z" fill="#FF5E48"/>
<path d="M32.2646 20.521C35.9038 20.0342 38.7266 18.6881 38.5696 17.5144C38.4126 16.3408 35.3352 15.7841 31.696 16.2709C28.0569 16.7578 25.234 18.1038 25.391 19.2775C25.5481 20.4511 28.6254 21.0079 32.2646 20.521Z" fill="#FF5E48"/>
<path d="M36.9592 27.9525C37.4617 26.8804 35.174 24.7481 31.8493 23.1901C28.5248 21.632 25.4223 21.2381 24.9198 22.3103C24.4173 23.3825 26.7051 25.5148 30.0297 27.0729C33.3543 28.6309 36.4568 29.0248 36.9592 27.9525Z" fill="#FF5E48"/>
<path d="M29.9666 35.8638C30.969 35.2335 30.1974 32.2028 28.243 29.0946C26.2887 25.9863 23.8918 23.9776 22.8894 24.6078C21.887 25.2381 22.6586 28.2688 24.613 31.377C26.5673 34.4853 28.9642 36.4941 29.9666 35.8638Z" fill="#FF5E48"/>
<path d="M49.1074 28.4921V5.63492H59.2957C60.941 5.63492 62.3754 5.92063 63.5988 6.49206C64.8223 7.04233 65.7715 7.8254 66.4465 8.84127C67.1215 9.85714 67.459 11.0423 67.459 12.3968C67.459 13.7302 67.1215 14.9048 66.4465 15.9206C65.7715 16.9153 64.8223 17.6984 63.5988 18.2698C62.3754 18.8201 60.941 19.0952 59.2957 19.0952H52.9676V15.5079H59.1691C60.3293 15.5079 61.2152 15.2434 61.827 14.7143C62.4598 14.164 62.7762 13.4021 62.7762 12.4286C62.7762 11.4339 62.4703 10.6825 61.8586 10.1746C61.2469 9.6455 60.3504 9.38095 59.1691 9.38095H53.9801V28.4921H49.1074ZM61.9535 28.4921L52.8094 16.619H57.9668L68.5348 28.4921H61.9535Z" fill="#222222"/>
<path d="M77.3212 28.8095C75.5283 28.8095 73.9673 28.4603 72.6384 27.7619C71.3095 27.0423 70.2759 26.0476 69.5376 24.7778C68.8204 23.5079 68.4619 22.0476 68.4619 20.3968C68.4619 18.7249 68.8204 17.2646 69.5376 16.0159C70.2759 14.746 71.299 13.7619 72.6068 13.0635C73.9146 12.3439 75.4333 11.9841 77.163 11.9841C78.8294 11.9841 80.2744 12.3228 81.4978 13C82.7212 13.6772 83.6705 14.619 84.3455 15.8254C85.0205 17.0317 85.358 18.4497 85.358 20.0794C85.358 20.418 85.3474 20.7354 85.3263 21.0317C85.3052 21.3069 85.2736 21.5714 85.2314 21.8254H71.2462V18.6825H81.4029L80.5802 19.254C80.5802 17.9418 80.2638 16.9788 79.631 16.3651C79.0193 15.7302 78.1755 15.4127 77.0998 15.4127C75.8552 15.4127 74.8849 15.836 74.1888 16.6825C73.5138 17.5291 73.1763 18.7989 73.1763 20.4921C73.1763 22.1429 73.5138 23.3704 74.1888 24.1746C74.8849 24.9788 75.9185 25.381 77.2896 25.381C78.049 25.381 78.7029 25.254 79.2513 25C79.7998 24.746 80.2111 24.3333 80.4853 23.7619H84.9466C84.4193 25.328 83.5123 26.5661 82.2255 27.4762C80.9599 28.3651 79.3251 28.8095 77.3212 28.8095Z" fill="#222222"/>
<path d="M97.7364 28.8095C96.1965 28.8095 94.9625 28.4497 94.0344 27.7302C93.1063 27.0106 92.5579 26.0265 92.3891 24.7778L92.6422 24.746V35H87.8961V12.3016H92.5473V15.8889L92.2625 15.8254C92.4946 14.6402 93.1274 13.709 94.161 13.0317C95.1946 12.3333 96.4707 11.9841 97.9895 11.9841C99.445 11.9841 100.7 12.3333 101.755 13.0317C102.831 13.709 103.653 14.672 104.223 15.9206C104.813 17.1693 105.109 18.6402 105.109 20.3333C105.109 22.0476 104.803 23.5397 104.191 24.8095C103.579 26.0794 102.725 27.0635 101.628 27.7619C100.531 28.4603 99.234 28.8095 97.7364 28.8095ZM96.4075 25C97.5254 25 98.4325 24.5979 99.1286 23.7937C99.8247 22.9894 100.173 21.8466 100.173 20.3651C100.173 18.8836 99.8141 17.7513 99.0969 16.9683C98.4008 16.1852 97.4832 15.7937 96.3442 15.7937C95.2473 15.7937 94.3403 16.1958 93.6231 17C92.927 17.7831 92.5789 18.9153 92.5789 20.3968C92.5789 21.8783 92.927 23.0212 93.6231 23.8254C94.3403 24.6085 95.2684 25 96.4075 25Z" fill="#222222"/>
<path d="M117.859 28.4921C117.733 28.0265 117.638 27.5291 117.574 27C117.532 26.4709 117.511 25.8571 117.511 25.1587H117.384V17.5079C117.384 16.8519 117.163 16.3439 116.72 15.9841C116.298 15.6032 115.665 15.4127 114.822 15.4127C114.02 15.4127 113.377 15.5503 112.891 15.8254C112.427 16.1005 112.122 16.5026 111.974 17.0317H107.449C107.66 15.5714 108.409 14.3651 109.696 13.4127C110.983 12.4603 112.744 11.9841 114.98 11.9841C117.3 11.9841 119.072 12.5026 120.295 13.5397C121.519 14.5767 122.131 16.0688 122.131 18.0159V25.1587C122.131 25.6878 122.162 26.2275 122.225 26.7778C122.31 27.3069 122.436 27.8783 122.605 28.4921H117.859ZM112.227 28.8095C110.624 28.8095 109.348 28.4074 108.399 27.6032C107.449 26.7778 106.975 25.6878 106.975 24.3333C106.975 22.8307 107.534 21.6243 108.652 20.7143C109.791 19.7831 111.373 19.1799 113.398 18.9048L118.112 18.2381V21L114.189 21.6032C113.345 21.7302 112.723 21.963 112.322 22.3016C111.921 22.6402 111.721 23.1058 111.721 23.6984C111.721 24.2275 111.911 24.6296 112.29 24.9048C112.67 25.1799 113.176 25.3175 113.809 25.3175C114.8 25.3175 115.644 25.0529 116.34 24.5238C117.036 23.9735 117.384 23.3386 117.384 22.619L117.827 25.1587C117.363 26.3651 116.657 27.2751 115.708 27.8889C114.758 28.5026 113.598 28.8095 112.227 28.8095Z" fill="#222222"/>
<path d="M125.099 28.4921V12.3016H129.845V28.4921H125.099ZM124.94 10.1429V5H130.003V10.1429H124.94Z" fill="#222222"/>
<path d="M133.627 28.4921V12.3016H138.278V16.1111H138.373V28.4921H133.627ZM138.373 20.0476L137.962 16.2063C138.341 14.8307 138.963 13.7831 139.828 13.0635C140.693 12.3439 141.769 11.9841 143.056 11.9841C143.456 11.9841 143.752 12.0265 143.942 12.1111V16.5556C143.836 16.5132 143.688 16.4921 143.499 16.4921C143.309 16.4709 143.077 16.4603 142.803 16.4603C141.284 16.4603 140.166 16.7354 139.449 17.2857C138.731 17.8148 138.373 18.7355 138.373 20.0476Z" fill="#222222"/>
<path d="M146.234 28.4921V5.63492H150.98V28.4921H146.234Z" fill="#222222"/>
<path d="M155.584 35L160.046 25.0952L160.868 23.7302L165.045 12.3016H170.107L160.33 35H155.584ZM159.002 28.1746L152.8 12.3016H157.926L163.02 26.7778L159.002 28.1746Z" fill="#222222"/>
</svg>
