<svg width="121" height="100" viewBox="0 0 121 100" fill="none" xmlns="http://www.w3.org/2000/svg">
<path d="M96.0121 49.0719V25.6236C96.0121 23.3947 94.5022 20.7793 92.5699 19.6649L63.792 3.04707C62.8663 2.51681 61.644 2.22021 60.3498 2.22021C59.0556 2.22021 57.8333 2.51681 56.9076 3.04707L28.1297 19.6559C26.1974 20.7703 24.6875 23.3857 24.6875 25.6146V49.0629H27.3478V25.6146C27.3478 24.3653 28.3724 22.5858 29.4598 21.9567L58.2377 5.34786C58.75 5.05128 59.5409 4.87153 60.3498 4.87153C61.1586 4.87153 61.9495 5.05127 62.4618 5.33887L91.2397 21.9567C92.3272 22.5858 93.3518 24.3563 93.3518 25.6146V49.0629H96.0121V49.0719Z" fill="#515150"/>
<path d="M24.7061 74.3948C24.7061 76.6237 26.2159 79.239 28.1482 80.3535L56.9261 96.9623C57.8518 97.4926 59.0741 97.7892 60.3683 97.7892C61.6625 97.7892 62.8848 97.4926 63.8105 96.9623L92.5884 80.3535C94.5207 79.239 96.0306 76.6237 96.0306 74.3948V70.3145H95.6981H93.3703H27.3753H25.0476H24.715V74.3948H24.7061Z" fill="#515150"/>
<path d="M93.8376 17.939L64.5384 1.02458C63.397 0.368499 61.9141 0 60.3682 0C58.8224 0 57.3395 0.359512 56.1891 1.02458L26.8899 17.939C24.5532 19.2871 22.7197 22.4687 22.7197 25.1649V49.0626H24.0499V25.1649C24.0499 22.927 25.6227 20.2038 27.555 19.0894L56.8541 2.17498C57.7978 1.62674 59.0471 1.33016 60.3682 1.33016C61.6894 1.33016 62.9386 1.62674 63.8733 2.17498L93.1725 19.0894C95.1048 20.2038 96.6776 22.936 96.6776 25.1649V49.0626H98.0078V25.1649C98.0078 22.4687 96.1743 19.2961 93.8376 17.939Z" fill="#515150"/>
<path d="M96.6776 74.8351C96.6776 77.073 95.1048 79.7962 93.1725 80.9107L63.8733 97.8251C62.9297 98.3733 61.6804 98.6699 60.3682 98.6699C59.0471 98.6699 57.7978 98.3733 56.8541 97.8251L27.555 80.9107C25.6227 79.7962 24.0499 77.064 24.0499 74.8351V70.3145H22.7197V74.8351C22.7197 77.5404 24.5532 80.713 26.8899 82.0611L56.1891 98.9755C57.3305 99.6316 58.8134 100 60.3682 100C61.9141 100 63.406 99.6405 64.5384 98.9755L93.8376 82.0611C96.1833 80.713 98.0078 77.5314 98.0078 74.8351V70.3145H96.6776V74.8351Z" fill="#515150"/>
<path d="M0 42.3745L6.30921 52.063L0 61.7515H11.8006V49.3488L23.6011 42.3745H0Z" fill="#515150"/>
<path d="M120.846 42.3745L114.537 52.063L120.846 61.7515H109.046V49.3488L97.2451 42.3745H120.846Z" fill="#515150"/>
<path d="M68.1334 35.2256C65.9495 35.8817 63.2712 36.2681 60.3593 36.2681C57.5013 36.2681 54.8679 35.8907 52.7109 35.2615V42.2987H68.1334V35.2256Z" fill="#515150"/>
<path d="M81.03 49.0212L79.6999 40.6179C79.6999 38.2812 78.2978 37.005 73.3008 35.6748V49.0212H81.03Z" fill="#515150"/>
<path d="M47.5432 49.0244V35.6421C42.4742 36.9632 40.5869 38.2664 40.5869 40.6122L39.5713 49.0154H47.5432V49.0244Z" fill="#515150"/>
<path d="M51.9658 49.0235V45.4915H68.7633V49.0235H72.1157V35.3806C71.2349 35.1828 70.3092 34.9941 69.3385 34.8413V43.4872H51.5254V34.8773C51.4894 34.8683 51.4535 34.8503 51.4175 34.8413C50.4828 34.9941 49.5931 35.1649 48.7393 35.3536V49.0235H51.9658Z" fill="#515150"/>
<path d="M67.5673 46.6807H53.1514V49.0264H67.5673V46.6807Z" fill="#515150"/>
<path d="M69.0864 22.6882C67.3519 22.0231 64.404 21.6636 60.3596 21.6636C56.4141 21.6636 53.5112 22.0051 51.7586 22.6342C51.7406 22.8948 51.7227 23.1465 51.7227 23.4071C51.7227 28.6199 53.6999 32.844 60.4225 32.844C67.1451 32.844 69.1224 28.6199 69.1224 23.4071C69.1224 23.1645 69.1044 22.9218 69.0864 22.6882ZM64.2602 29.7972C63.8468 29.923 63.5681 29.95 63.1457 29.977C63.0289 29.977 62.912 29.977 62.7952 29.968C62.1122 29.923 61.3932 29.7343 60.8809 29.249C60.6742 29.0603 60.5124 28.8176 60.4315 28.539C60.2248 29.2939 59.4429 29.7074 58.7239 29.8691C58.4363 29.932 58.3644 29.9321 58.0678 29.959L57.7083 29.968C56.9174 29.941 56.1355 29.7074 55.4974 29.222C55.0211 28.8536 54.7155 28.4491 54.4099 27.9368C54.6436 28.0627 54.8773 28.1795 55.1199 28.2873C55.749 28.548 56.468 28.7008 57.1151 28.3862C57.5016 28.1975 57.7802 27.8649 58.0678 27.5594C58.2116 27.4066 58.3554 27.2358 58.5262 27.11C58.679 26.9931 58.7598 26.9572 58.9396 26.8943C59.0924 26.8493 59.2991 26.8493 59.4429 26.8763C59.8294 26.9302 60.1888 27.1459 60.3776 27.4964C60.3956 27.5324 60.4045 27.5683 60.4225 27.6133C60.4405 27.5773 60.4495 27.5324 60.4675 27.4964C60.6562 27.1459 61.0067 26.9302 61.4022 26.8763C61.5549 26.8583 61.7527 26.8493 61.9055 26.8943C62.0852 26.9482 62.1661 26.9931 62.3189 27.11C62.4896 27.2358 62.6334 27.4066 62.7772 27.5594C63.0648 27.8649 63.3435 28.1975 63.7299 28.3862C64.6287 28.8266 65.6353 28.3772 66.4351 27.9368C65.9408 28.8266 65.2308 29.4827 64.2602 29.7972Z" fill="#515150"/>
<path d="M69.3641 21.3473C68.4474 17.1232 68.6901 12.6924 60.2868 12.6924C53.7888 12.6924 52.5576 15.3347 51.9015 18.4713L48.2436 19.0645C48.2436 19.0645 47.0303 19.3881 47.0303 19.7565C47.0303 20.4486 49.403 21.3563 50.077 21.3563H51.2993C51.2993 21.3563 51.3532 21.3294 51.4161 21.3024C53.4563 20.7452 56.3862 20.4755 60.2868 20.4755C64.3222 20.4665 67.315 20.7541 69.3641 21.3473Z" fill="#515150"/>
<path d="M86.8088 49.0187C86 45.4148 84.4361 38.4675 83.8789 35.9599C84.517 33.8659 87.2312 33.5333 86.7549 31.4213C86.6381 30.891 86.5122 30.3607 86.5122 30.3607L83.6003 31.0168L83.124 28.8958L86.0359 28.2397L85.8022 27.1792L82.0904 28.015L81.9736 27.4848L79.3223 28.0779L84.0317 49.0187H86.8088Z" fill="#515150"/>
<path d="M86.4406 33.7612L87.1686 36.9877C87.2045 37.1765 87.2135 37.3562 87.1686 37.536C87.1057 37.7786 86.9349 37.9764 86.7192 38.0932C86.6653 38.1202 86.6114 38.1381 86.5574 38.1651L86.3867 38.201C86.2339 38.21 86.1889 38.219 86.0362 38.1831C85.6497 38.0842 85.416 37.7786 85.3262 37.4012L84.8408 35.2532C85.3621 34.7049 86.0092 34.2735 86.4406 33.7612Z" fill="#515150"/>
<path d="M85.9186 30.21L83.4746 30.4795L83.5375 30.7491L85.9815 30.4795L85.9186 30.21Z" fill="#515150"/>
<path d="M85.8024 29.6792L83.3584 29.9487L83.4213 30.2183L85.8653 29.9487L85.8024 29.6792Z" fill="#515150"/>
<path d="M85.6852 29.1484L83.2412 29.418L83.3041 29.6786L85.7481 29.409L85.6852 29.1484Z" fill="#515150"/>
<path d="M85.5592 28.6182L83.1152 28.8877L83.1781 29.1573L85.6221 28.8877L85.5592 28.6182Z" fill="#515150"/>
<path d="M79.8709 24.3331C80.6618 24.1533 81.7223 23.9197 82.2526 23.7938C83.5737 23.4972 84.2298 23.9107 84.5264 25.2318L84.9039 26.9305L83.0525 27.3439L82.7918 26.1755C82.7199 25.8699 82.4054 25.7082 82.1447 25.7621C81.8841 25.825 81.6774 26.1485 81.7313 26.4092L79.08 27.0024C78.9901 26.5979 78.8733 26.0946 78.8463 25.9418C78.6666 25.1599 79.08 24.5128 79.8709 24.3331Z" fill="#515150"/>
<path d="M65.1327 86.4242C65.3484 86.1636 65.6 85.9479 65.8786 85.7861C65.7708 85.7412 65.6719 85.6873 65.582 85.6244L61.7803 82.5237L64.4047 80.3847C64.5934 80.2678 64.8001 80.2049 65.0248 80.178C64.7642 79.9982 64.5215 79.7825 64.3148 79.5219L64.153 79.2972C64.1081 79.2343 64.0721 79.1714 64.0272 79.1085C63.8924 78.8838 63.7935 78.6411 63.7216 78.3984C63.6048 78.6231 63.461 78.8298 63.2812 78.9916L60.3693 81.3643L57.4573 78.9916C57.2686 78.8298 57.1338 78.6231 57.017 78.3984C56.9451 78.6411 56.8372 78.8838 56.7024 79.1085C56.6665 79.1714 56.6215 79.2343 56.5766 79.2972L56.4148 79.5219H56.4058C56.1991 79.7825 55.9564 79.9982 55.6868 80.178C55.9025 80.2049 56.1182 80.2678 56.307 80.3847L58.9313 82.5237L55.1296 85.6244C55.0487 85.6873 54.9409 85.7412 54.833 85.7861C55.1116 85.9479 55.3633 86.1636 55.579 86.4242L55.7138 86.613C55.7497 86.6669 55.7857 86.7208 55.8127 86.7748C55.9205 86.9545 56.0014 87.1432 56.0733 87.341C56.1182 87.2241 56.1811 87.1073 56.262 87.0084L60.3423 83.6741L64.4226 87.0084C64.5035 87.1073 64.5664 87.2241 64.6114 87.341C64.6743 87.1432 64.7642 86.9545 64.872 86.7748C64.908 86.7208 64.9439 86.6669 64.9799 86.613L65.1327 86.4242ZM57.4034 80.4655C57.1428 80.2588 57.017 79.9892 57.1158 79.8724C57.2147 79.7555 57.5023 79.8275 57.7539 80.0342L59.866 81.7597L59.4256 82.1192L57.4034 80.4655ZM56.1721 85.9389C56.0733 85.8221 56.2081 85.5525 56.4597 85.3458L62.9667 80.0342C63.2273 79.8275 63.5059 79.7555 63.6048 79.8724C63.7036 79.9892 63.5688 80.2588 63.3172 80.4655L56.8102 85.7771C56.5586 85.9839 56.271 86.0557 56.1721 85.9389ZM64.5485 85.9389C64.4496 86.0557 64.162 85.9839 63.9104 85.7771L60.8546 83.2786L61.295 82.9191L64.2609 85.3458C64.5215 85.5525 64.6473 85.8221 64.5485 85.9389Z" fill="white"/>
<path d="M53.5743 78.6045C52.7295 78.263 51.8667 77.9843 51.0039 77.6967C51.0039 77.7507 51.0129 77.7956 51.0219 77.8495C51.1297 78.5505 51.4982 79.1976 52.0465 79.647C53.2688 80.6446 55.0752 80.4649 56.0818 79.2336L56.1717 79.1167C56.2256 79.0359 56.2795 78.955 56.3335 78.8741C56.5492 78.5146 56.675 78.1102 56.711 77.6967C56.702 77.6518 56.7109 77.6788 56.702 77.6159C56.7109 77.4091 56.7199 77.3552 56.693 77.0406C56.684 76.9418 56.666 76.8339 56.6211 76.6811C56.4683 76.097 56.1178 75.5847 55.6684 75.1892C55.4347 74.9825 55.0932 74.8117 54.8056 74.7039C54.0147 74.4343 53.1249 74.5242 52.4059 74.9466C52.1902 75.0724 52.1453 75.1263 51.9746 75.2611L52.3161 75.378C53.0261 75.6296 53.7361 75.8723 54.4461 76.1239C55.6864 76.5733 54.6259 79.0449 53.5743 78.6045Z" fill="white"/>
<path d="M67.5683 87.2223C68.2783 87.5099 68.9973 87.7435 69.7253 87.9862C69.7253 87.9413 69.7163 87.8963 69.7073 87.8604C69.6174 87.2762 69.3119 86.737 68.8535 86.3595C67.8289 85.5236 66.319 85.6764 65.4832 86.701L65.4113 86.7999C65.3664 86.8718 65.3214 86.9347 65.2765 87.0066C65.0967 87.3032 64.9889 87.6447 64.9619 87.9952C64.9709 88.0312 64.9709 88.0132 64.9709 88.0581C64.9619 88.2738 64.9619 88.2379 65.0428 88.84C65.1776 89.3254 65.4562 89.7568 65.8427 90.0893C66.0404 90.2601 66.328 90.4038 66.5617 90.4937C67.2268 90.7184 67.9727 90.6465 68.5749 90.287C68.7546 90.1792 68.7906 90.1432 68.9344 90.0264L68.6468 89.9275C68.0536 89.7208 67.4604 89.5141 66.8583 89.3074C65.7977 88.9299 66.6875 86.8628 67.5683 87.2223Z" fill="white"/>
<path d="M64.0186 77.6951C64.0545 78.1085 64.1893 78.513 64.396 78.8725C64.441 78.9533 64.5039 79.0342 64.5578 79.1151L64.6477 79.232C65.6543 80.4632 67.4608 80.643 68.6831 79.6454C69.2313 79.196 69.5998 78.5579 69.7076 77.8479C69.7166 77.794 69.7166 77.749 69.7256 77.6951C68.8628 77.9827 68 78.2703 67.1552 78.6028C66.0947 79.0342 65.0341 76.5627 66.2924 76.1313C67.0024 75.8796 67.7124 75.637 68.4224 75.3853L68.7639 75.2685C68.6022 75.1337 68.5572 75.0887 68.3415 74.9539C67.6225 74.5315 66.7238 74.4326 65.9419 74.7113C65.6543 74.8101 65.3128 74.9899 65.0791 75.1966C64.6207 75.592 64.2792 76.1043 64.1264 76.6885C64.0815 76.8413 64.0635 76.9581 64.0545 77.048C64.0275 77.3626 64.0275 77.4165 64.0455 77.6232C64.0275 77.6771 64.0275 77.6502 64.0186 77.6951Z" fill="white"/>
<path d="M55.7675 87.9883C55.7405 87.6378 55.6237 87.2963 55.4529 86.9997C55.408 86.9278 55.363 86.8649 55.3181 86.793L55.2462 86.6942C54.4104 85.6696 52.9004 85.5168 51.8669 86.3526C51.4085 86.7301 51.103 87.2694 51.0131 87.8535C51.0041 87.8985 51.0041 87.9434 50.9951 87.9794C51.7231 87.7367 52.4421 87.503 53.1521 87.2154C54.0329 86.8559 54.9226 88.9231 53.8711 89.2915C53.2779 89.4982 52.6848 89.705 52.0826 89.9117L51.795 90.0105C51.9298 90.1274 51.9747 90.1633 52.1545 90.2712C52.7567 90.6307 53.5026 90.7026 54.1677 90.4779C54.4104 90.397 54.6979 90.2442 54.8867 90.0734C55.2642 89.7409 55.5518 89.3185 55.6866 88.8242C55.7675 88.222 55.7764 88.258 55.7585 88.0423C55.7675 88.0063 55.7585 88.0243 55.7675 87.9883Z" fill="white"/>
<path d="M107.743 50.3076H12.7207V68.6452H107.743V50.3076Z" fill="#515150"/>
<path d="M27.2272 62.998H25.4184L23.8097 60.114L23.443 59.889L23.6513 59.4806H24.0348C24.3348 59.4806 24.571 59.3889 24.7433 59.2055C24.9155 59.0221 25.0016 58.7637 25.0016 58.4303C25.0016 58.0413 24.8961 57.7246 24.6849 57.4801C24.4793 57.23 24.1765 57.105 23.7764 57.105C23.5263 57.105 23.2929 57.1828 23.0762 57.3384V62.1979L24.0014 62.4646L23.7347 63.0064H20.784V62.5396L21.5675 61.8811V57.2551L20.6423 56.9967L20.9174 56.4549H22.301C22.7845 56.4549 23.2596 56.4382 23.7263 56.4049C24.0598 56.3826 24.3098 56.3715 24.4765 56.3715C24.9044 56.3715 25.2823 56.4493 25.6101 56.6049C25.9435 56.7549 26.1991 56.9605 26.377 57.2217C26.5603 57.4829 26.652 57.7746 26.652 58.0969C26.652 58.4859 26.4798 58.8471 26.1352 59.1805C25.7907 59.5139 25.3712 59.764 24.8766 59.9307L25.5434 60.1224L26.627 62.0562L27.4939 62.4563L27.2272 62.998ZM32.6515 63.0064H27.3836V62.5396L28.1671 61.9228V57.2634L27.2419 56.9883L27.517 56.4465H32.5681L33.1683 56.2965V58.422L32.7098 58.6054L31.6846 57.08H29.6758V59.3305H30.6677L31.2762 58.397H31.7429V60.8225L31.2011 61.0976L30.6593 59.9723H29.6758V62.3646H31.6179L32.7932 60.6642L33.2516 60.8559V63.1564L32.6515 63.0064ZM37.1225 59.739C37.417 59.739 37.6504 59.6362 37.8227 59.4306C37.9949 59.225 38.0811 58.9416 38.0811 58.5804C38.0811 58.1414 37.9755 57.7857 37.7643 57.5134C37.5532 57.2356 37.242 57.0967 36.8308 57.0967C36.5585 57.0967 36.3029 57.18 36.0639 57.3467V62.1395L37.5143 62.4563L37.2392 62.998H33.7717V62.5313L34.5552 61.9145V57.2717L33.63 56.9883L33.9051 56.4465H35.2887C35.7833 56.4465 36.2695 56.4299 36.7474 56.3965C37.1031 56.3743 37.3642 56.3632 37.5309 56.3632C37.9644 56.3632 38.3478 56.4493 38.6812 56.6216C39.0146 56.7883 39.273 57.0189 39.4564 57.3134C39.6398 57.6079 39.7314 57.9358 39.7314 58.297C39.7314 58.6971 39.5786 59.0721 39.273 59.4222C38.9674 59.7723 38.5812 60.0474 38.1144 60.2474C37.6476 60.4475 37.192 60.5364 36.7474 60.5141L36.3807 60.2891L36.6557 59.7473H37.1225V59.739ZM46.014 62.998H42.9132V62.5313L43.8218 61.9895L43.3133 60.7475H40.7377L40.2793 61.8645L41.5546 62.4563L41.2879 62.998H38.5956V62.5313L39.4958 61.8561L41.6296 56.7133L43.0716 56.2882L45.4388 62.0312L46.289 62.4563L46.014 62.998ZM42.038 57.6051L41.0045 60.1057H43.0549L42.038 57.6051ZM49.1405 62.9897H46.1899V62.5229L46.9734 61.8645V57.2467L46.0482 56.98L46.3232 56.4382H49.2739V56.905L48.4821 57.5718V62.1895L49.4073 62.4479L49.1405 62.9897ZM56.0666 62.998H54.2578L52.6491 60.114L52.2824 59.889L52.4907 59.4806H52.8742C53.1742 59.4806 53.4104 59.3889 53.5827 59.2055C53.7549 59.0221 53.8411 58.7637 53.8411 58.4303C53.8411 58.0413 53.7355 57.7246 53.5243 57.4801C53.3187 57.23 53.0159 57.105 52.6158 57.105C52.3657 57.105 52.1323 57.1828 51.9156 57.3384V62.1979L52.8408 62.4646L52.5741 63.0064H49.6234V62.5396L50.4069 61.8811V57.2551L49.4817 56.9967L49.7568 56.4549H51.1404C51.6239 56.4549 52.099 56.4382 52.5658 56.4049C52.8992 56.3826 53.1492 56.3715 53.3159 56.3715C53.7438 56.3715 54.1217 56.4493 54.4495 56.6049C54.7829 56.7549 55.0385 56.9605 55.2164 57.2217C55.3997 57.4829 55.4914 57.7746 55.4914 58.0969C55.4914 58.4859 55.3192 58.8471 54.9746 59.1805C54.6301 59.5139 54.2106 59.764 53.716 59.9307L54.3828 60.1224L55.4664 62.0562L56.3333 62.4563L56.0666 62.998ZM61.5774 61.6227C61.5774 61.456 61.5108 61.2977 61.3774 61.1476C61.2496 60.9976 61.0857 60.8587 60.8856 60.7309C60.6856 60.603 60.4188 60.4475 60.0854 60.2641C59.6742 60.0363 59.338 59.8362 59.0769 59.6639C58.8212 59.4917 58.6045 59.2916 58.4267 59.0638C58.2489 58.836 58.16 58.5859 58.16 58.3136C58.16 58.0358 58.2878 57.7385 58.5434 57.4218C58.799 57.0995 59.1102 56.83 59.477 56.6132C59.8493 56.391 60.191 56.2798 60.5022 56.2798C60.8745 56.2798 61.3107 56.3215 61.8108 56.4049C62.3109 56.4882 62.6777 56.5771 62.9111 56.6716V58.497H62.1276C61.8942 58.0469 61.6358 57.6968 61.3524 57.4468C61.0745 57.1967 60.78 57.0717 60.4688 57.0717C60.2466 57.0717 60.0715 57.1439 59.9437 57.2884C59.8159 57.4273 59.752 57.6051 59.752 57.8219C59.752 57.9997 59.8187 58.1692 59.9521 58.3303C60.091 58.4859 60.2605 58.6304 60.4605 58.7637C60.6661 58.8915 60.9412 59.0499 61.2857 59.2388C61.6914 59.4611 62.0192 59.6556 62.2693 59.8223C62.5193 59.989 62.7305 60.1835 62.9027 60.4058C63.075 60.6281 63.1611 60.8726 63.1611 61.1393C63.1611 61.4171 63.025 61.7172 62.7527 62.0395C62.4804 62.3562 62.147 62.6257 61.7525 62.848C61.3635 63.0647 61.0079 63.1731 60.6856 63.1731C60.2966 63.1731 59.8298 63.1314 59.2852 63.0481C58.7462 62.9647 58.3572 62.8758 58.1183 62.7813V60.9559H58.9018C59.1463 61.406 59.4297 61.7561 59.752 62.0062C60.0743 62.2562 60.3994 62.3812 60.7272 62.3812C60.9829 62.3812 61.1885 62.309 61.344 62.1645C61.4996 62.0145 61.5774 61.8339 61.5774 61.6227ZM68.7564 63.0064H63.4886V62.5396L64.2721 61.9228V57.2634L63.3469 56.9883L63.6219 56.4465H68.6731L69.2732 56.2965V58.422L68.8148 58.6054L67.7896 57.08H65.7808V59.3305H66.7727L67.3811 58.397H67.8479V60.8225L67.3061 61.0976L66.7643 59.9723H65.7808V62.3646H67.7229L68.8981 60.6642L69.3566 60.8559V63.1564L68.7564 63.0064ZM76.3282 62.998H74.5194L72.9107 60.114L72.544 59.889L72.7524 59.4806H73.1358C73.4359 59.4806 73.672 59.3889 73.8443 59.2055C74.0166 59.0221 74.1027 58.7637 74.1027 58.4303C74.1027 58.0413 73.9971 57.7246 73.7859 57.4801C73.5803 57.23 73.2775 57.105 72.8774 57.105C72.6273 57.105 72.394 57.1828 72.1772 57.3384V62.1979L73.1025 62.4646L72.8357 63.0064H69.885V62.5396L70.6686 61.8811V57.2551L69.7433 56.9967L70.0184 56.4549H71.4021C71.8855 56.4549 72.3606 56.4382 72.8274 56.4049C73.1608 56.3826 73.4109 56.3715 73.5776 56.3715C74.0054 56.3715 74.3833 56.4493 74.7112 56.6049C75.0446 56.7549 75.3002 56.9605 75.478 57.2217C75.6614 57.4829 75.7531 57.7746 75.7531 58.0969C75.7531 58.4859 75.5808 58.8471 75.2363 59.1805C74.8918 59.5139 74.4722 59.764 73.9777 59.9307L74.6445 60.1224L75.7281 62.0562L76.5949 62.4563L76.3282 62.998ZM82.8111 57.5968L80.6773 62.7313L79.2436 63.1564L76.8764 57.4134L76.0262 56.9883L76.2929 56.4465H79.402V56.9133L78.4934 57.4551L80.2855 61.8394L82.0442 57.5885L80.7689 56.9883L81.0357 56.4465H83.728L83.7196 56.9133L82.8111 57.5968ZM86.6293 62.9897H83.6786V62.5229L84.4621 61.8645V57.2467L83.5369 56.98L83.812 56.4382H86.7627V56.905L85.9708 57.5718V62.1895L86.896 62.4479L86.6293 62.9897ZM90.9797 56.2798C91.302 56.2798 91.6771 56.3215 92.105 56.4049C92.5384 56.4882 92.8552 56.5771 93.0552 56.6716V58.447H92.2634C91.8355 57.6413 91.2465 57.2384 90.4963 57.2384C90.1907 57.2384 89.91 57.3356 89.6544 57.5301C89.3988 57.7246 89.196 57.9913 89.046 58.3303C88.9015 58.6693 88.8292 59.0499 88.8292 59.4722C88.8292 59.9501 88.9015 60.3891 89.046 60.7892C89.196 61.1837 89.421 61.5005 89.7211 61.7394C90.0212 61.9728 90.3935 62.0895 90.838 62.0895C91.3437 62.0895 92.0633 61.8117 92.9969 61.256L93.3303 61.7894L91.7966 62.9814C91.5521 63.0536 91.3159 63.1008 91.0881 63.1231C90.8658 63.1509 90.6269 63.1648 90.3713 63.1648C89.7489 63.1648 89.196 63.0231 88.7125 62.7397C88.2291 62.4563 87.854 62.0673 87.5873 61.5727C87.3206 61.0726 87.1872 60.5058 87.1872 59.8723C87.1872 59.2222 87.3872 58.622 87.7873 58.0719C88.1874 57.5162 88.6848 57.08 89.2793 56.7633C89.8739 56.441 90.4407 56.2798 90.9797 56.2798ZM98.8982 63.0064H93.6304V62.5396L94.4139 61.9228V57.2634L93.4887 56.9883L93.7637 56.4465H98.8149L99.415 56.2965V58.422L98.9566 58.6054L97.9314 57.08H95.9226V59.3305H96.9145L97.5229 58.397H97.9897V60.8225L97.4479 61.0976L96.9061 59.9723H95.9226V62.3646H97.8647L99.0399 60.6642L99.4984 60.8559V63.1564L98.8982 63.0064Z" fill="white"/>
</svg>
