<svg width="100" height="100" viewBox="0 0 100 100" fill="none" xmlns="http://www.w3.org/2000/svg">
<path d="M50.0308 56.187C51.7213 56.187 53.3816 56.1467 54.9916 56.0562C55.0519 55.9757 55.0821 55.8851 55.0821 55.8046C55.0821 55.06 52.8282 54.4663 50.0308 54.4663C47.2435 54.4663 44.9795 55.07 44.9795 55.8046C44.9795 55.8851 45.0197 55.9757 45.0801 56.0562C46.68 56.1467 48.3403 56.187 50.0308 56.187Z" fill="#515150"/>
<path d="M50.0309 49.0234C50.9164 49.0234 51.6409 48.2989 51.6409 47.4134C51.6409 46.5279 50.9164 45.8135 50.0309 45.8135C49.1353 45.8135 48.4209 46.538 48.4209 47.4134C48.4209 48.2989 49.1454 49.0234 50.0309 49.0234Z" fill="#515150"/>
<path d="M55.5347 38.437C55.2127 37.2295 53.5725 36.2534 51.4293 35.9616V26.7847C51.4293 25.2552 52.4757 24.0075 53.7537 24.0075C54.619 24.0075 56.0781 24.2792 56.0781 26.0803V27.9318H58.8654V26.0803C58.8654 23.2226 56.7623 21.2202 53.7637 21.2202C50.9463 21.2202 48.6621 23.7157 48.6621 26.7847V35.9616C46.5188 36.2635 44.8786 37.2395 44.5566 38.437C46.388 38.3464 48.2294 38.2961 50.0507 38.2961C51.8619 38.286 53.7034 38.3363 55.5347 38.437Z" fill="#515150"/>
<path d="M38.7598 37.0827C39.0516 37.7166 39.5547 38.2198 40.1886 38.5116C40.3194 37.9481 40.8024 37.5154 41.4062 37.5154C42.0099 37.5154 42.4929 37.9481 42.6237 38.5116C43.2577 38.2198 43.7608 37.7166 44.0526 37.0827C43.479 36.9519 43.0564 36.4689 43.0564 35.8652C43.0564 35.2614 43.4891 34.7784 44.0526 34.6476C43.7608 34.0137 43.2577 33.5106 42.6237 33.2188C42.4929 33.7722 42.0099 34.2049 41.4062 34.2049C40.8024 34.2049 40.3295 33.7822 40.1886 33.2188C39.5547 33.5106 39.0516 34.0137 38.7598 34.6476C39.3233 34.7784 39.7559 35.2614 39.7559 35.8652C39.766 36.4689 39.3333 36.9519 38.7598 37.0827Z" fill="#515150"/>
<path d="M57.9298 33.2188C57.2959 33.5106 56.7928 34.0137 56.501 34.6476C57.0645 34.7784 57.4972 35.2614 57.4972 35.8652C57.4972 36.4689 57.0645 36.9519 56.501 37.0827C56.7928 37.7166 57.2959 38.2198 57.9298 38.5116C58.0606 37.9481 58.5436 37.5154 59.1474 37.5154C59.7511 37.5154 60.2341 37.9481 60.3649 38.5116C60.9989 38.2198 61.502 37.7166 61.7938 37.0827C61.2303 36.9519 60.7876 36.4689 60.7876 35.8652C60.7876 35.2614 61.2202 34.7784 61.7938 34.6476C61.502 34.0137 60.9989 33.5106 60.3649 33.2188C60.2341 33.7722 59.7511 34.2049 59.1474 34.2049C58.5436 34.1948 58.0606 33.7722 57.9298 33.2188Z" fill="#515150"/>
<path d="M49.9895 75.0857C67.9207 75.0857 82.5715 63.9466 83.618 49.8894C83.3162 43.0068 66.1698 39.2837 50.0298 39.2837C33.7891 39.2837 16.5422 43.037 16.4214 49.9901H16.3711C17.488 64.007 32.1087 75.0857 49.9895 75.0857ZM50.0298 43.2583C64.2177 43.2583 75.7291 46.3072 75.7291 50.0806C75.7291 53.8339 64.2278 56.8929 50.0298 56.8929C35.8318 56.8929 24.3304 53.844 24.3304 50.0806C24.3304 46.3072 35.8418 43.2583 50.0298 43.2583Z" fill="#515150"/>
<path d="M20.2557 36.8808L17.9514 42.2843L15.7377 41.3385L16.1201 40.4429L11.3002 38.3902L10.9178 39.2857L8.7041 38.3399L11.1191 32.6647C11.6725 31.3566 12.2058 30.461 12.719 29.968C13.2322 29.4749 13.7755 29.1831 14.339 29.0825C14.9025 28.9919 15.4459 29.0523 15.9792 29.2737C16.6333 29.5554 17.0961 29.9478 17.3879 30.4711C17.6798 30.9943 17.8005 31.5679 17.7603 32.2119C17.72 32.8357 17.4584 33.7212 16.9653 34.8583L16.3515 36.2972L17.6496 36.8506L18.042 35.9148L20.2557 36.8808ZM12.6385 34.7375L14.3793 35.4721L14.6711 34.7778C14.8824 34.2948 14.973 33.9124 14.9528 33.6407C14.9327 33.3791 14.7516 33.1779 14.4195 33.037C14.2082 32.9464 13.9969 32.9263 13.7957 32.9766C13.6045 33.0269 13.4435 33.1376 13.3328 33.3087C13.2121 33.4697 13.0712 33.7615 12.8901 34.1841L12.6385 34.7375Z" fill="#515150"/>
<path d="M28.9001 24.8079L22.5608 31.9824L20.7597 30.3925L21.3534 29.7183L17.429 26.2468L16.8353 26.921L15.0342 25.3311L18.8378 21.0244L20.6389 22.6143L20.005 23.3287L23.9293 26.8002L25.4991 25.0192L24.2916 23.9526L25.8915 22.1413L28.9001 24.8079Z" fill="#515150"/>
<path d="M25.5486 17.8817L24.8845 18.2842L23.6367 16.2314L28.034 13.5549L29.2918 15.6076L28.8792 15.8591L30.6401 18.7571C31.0628 19.4514 31.4149 19.8841 31.6967 20.0451C31.9784 20.2162 32.2904 20.186 32.6325 19.9847C32.9142 19.8137 33.0551 19.5822 33.0551 19.2904C33.0551 19.0087 32.8639 18.5458 32.4715 17.9119L30.5798 14.8126L30.1471 15.0743L28.8893 13.0215L32.1193 11.0493L33.3771 13.102L32.6929 13.5146L34.5947 16.6239C35.0777 17.4188 35.3594 18.1332 35.4399 18.7873C35.5103 19.4313 35.3695 20.0552 35.0072 20.669C34.645 21.2828 34.0714 21.8261 33.2966 22.2991C32.6627 22.6814 32.0589 22.9431 31.4854 23.094C30.9018 23.2449 30.3685 23.255 29.8955 23.1342C29.4226 23.0135 28.9899 22.772 28.5975 22.4299C28.205 22.0978 27.7422 21.5041 27.2189 20.6488L25.5486 17.8817Z" fill="#515150"/>
<path d="M41.2673 18.4744L37.4235 19.0882L37.0411 16.7135L37.8058 16.5928L36.9807 11.4207L36.1958 11.5414L35.8135 9.16672L41.8006 8.21079L43.8734 11.8131L44.7589 7.73786L50.7159 6.79199L51.0982 9.16672L50.3134 9.29753L51.1385 14.4696L51.9334 14.3388L52.3158 16.7135L47.1337 17.5386L46.7513 15.1639L47.5462 15.0331L46.6607 9.48871L44.93 17.8908L43.4408 18.1222L39.2246 10.7465L40.1001 16.2204L40.8849 16.0997L41.2673 18.4744Z" fill="#515150"/>
<path d="M58.1916 18.5452L52.6875 17.1164L53.2912 14.7819L54.1365 15.0033L55.4547 9.93182L54.6094 9.71045L55.2132 7.37598L61.16 8.91552C62.3273 9.21739 63.2128 9.51927 63.8165 9.82114C64.4102 10.123 64.8328 10.5255 65.0844 11.0387C65.3359 11.5519 65.3862 12.0952 65.2353 12.6587C65.0944 13.2122 64.8127 13.6046 64.38 13.8461C63.9473 14.0876 63.4543 14.2184 62.931 14.2184C63.5649 14.6008 64.0077 15.0536 64.2693 15.5768C64.5309 16.1101 64.5913 16.6535 64.4504 17.1969C64.2794 17.8509 63.9272 18.354 63.3939 18.6962C62.8606 19.0383 62.2065 19.1892 61.4317 19.1389C60.6569 19.0987 59.5802 18.9075 58.1916 18.5452ZM58.3426 14.2586L57.8495 16.1806L58.6947 16.4019C59.2381 16.5428 59.6406 16.573 59.9224 16.4925C60.194 16.412 60.3752 16.2007 60.4657 15.8384C60.5563 15.5064 60.506 15.2347 60.345 15.0234C60.1739 14.8121 59.7915 14.631 59.1878 14.48L58.3426 14.2586ZM59.2582 10.7167L58.7954 12.4977L59.6305 12.709C60.194 12.86 60.5865 12.87 60.8078 12.7493C61.0192 12.6285 61.16 12.4374 61.2305 12.1757C61.2908 11.9443 61.2707 11.7229 61.16 11.5016C61.0493 11.2802 60.6569 11.0789 59.9626 10.8978L59.2582 10.7167Z" fill="#515150"/>
<path d="M68.9377 23.4341L63.9971 20.526L65.2247 18.4532L66.0196 18.9261L68.6761 14.4081L67.8812 13.9352L69.0987 11.8623L74.0393 14.7703L72.8218 16.8432L72.0269 16.3803L69.3704 20.8983L70.1653 21.3612L68.9377 23.4341Z" fill="#515150"/>
<path d="M72.3086 26.3058L69.4609 23.3273L71.2017 21.667L71.8155 22.301L75.599 18.6785L74.9852 18.0446L76.726 16.3843L80.0164 19.8256L78.7485 26.1045L80.8013 24.1323L80.2378 23.5386L81.9785 21.8783L84.786 24.8065L83.0452 26.4668L82.4414 25.8329L76.8165 31.2062L74.5324 28.8113L76.0015 21.5463L73.4456 23.9914L74.0594 24.6354L72.3086 26.3058Z" fill="#515150"/>
<path d="M83.8598 37.7053L83.4573 36.7594L85.2081 36.0048L86.9791 40.1404C85.9729 40.5731 85.188 40.8247 84.6346 40.8951C84.1013 40.9655 83.4975 40.875 82.8233 40.6536C82.1592 40.4322 81.5756 40.0599 81.0926 39.5467C80.6096 39.0335 80.2172 38.4197 79.9153 37.7254C79.4726 36.689 79.2411 35.6627 79.221 34.6665C79.1908 33.6703 79.4625 32.7647 80.0461 31.9698C80.6096 31.1748 81.3744 30.5711 82.3202 30.1585C83.7591 29.5447 85.1276 29.5145 86.4156 30.0881C87.7036 30.6516 88.6293 31.6075 89.223 32.976C89.706 34.113 89.8167 35.1293 89.535 36.0148L90.179 35.7431L91.1349 37.9669L87.9049 39.3455L86.9489 37.1217C87.2609 36.7594 87.452 36.3771 87.5225 35.9746C87.5929 35.5721 87.5426 35.1696 87.3615 34.747C87.1099 34.1634 86.7376 33.8112 86.2345 33.7005C85.7414 33.5898 84.9767 33.7609 83.9604 34.1935C82.9441 34.6262 82.3202 35.069 82.0787 35.5017C81.8372 35.9444 81.8272 36.4475 82.0687 36.9909C82.4309 37.8261 83.0347 38.0676 83.8598 37.7053Z" fill="#515150"/>
<path d="M42.1413 85.7125C41.9601 85.6421 41.618 85.5415 41.1149 85.4308L40.813 85.3604L40.4307 86.9905L40.803 87.081C41.286 87.1917 41.618 87.2521 41.7991 87.2722C41.9903 87.2823 42.1614 87.242 42.3224 87.1313C42.4834 87.0307 42.584 86.8798 42.6343 86.6483C42.6846 86.427 42.6645 86.2358 42.5639 86.0748C42.4733 85.9037 42.3325 85.793 42.1413 85.7125Z" fill="#515150"/>
<path d="M50.0298 2.6543C23.9279 2.6543 2.69629 23.8859 2.69629 49.9878C2.69629 76.0896 23.9279 97.3313 50.0298 97.3313C76.1316 97.3313 97.3733 76.0896 97.3733 49.9878C97.3733 23.896 76.1316 2.6543 50.0298 2.6543ZM23.2537 83.405C22.4991 83.4251 21.8148 83.1433 21.201 82.5899C20.6275 82.0667 20.2652 81.4227 20.1042 80.668L19.7218 81.0906L18.2628 79.7624L20.1545 77.6795L21.6136 79.0077C21.2715 79.7322 21.3419 80.3158 21.8249 80.7585C22.1771 81.0805 22.4789 81.0906 22.7305 80.8189C22.8613 80.668 22.9116 80.4969 22.8814 80.2856C22.8412 80.0642 22.7003 79.6617 22.4588 79.0882C22.1469 78.3637 21.9456 77.8103 21.8551 77.4078C21.7645 77.0355 21.7645 76.633 21.8551 76.2003C21.9456 75.7777 22.1368 75.3953 22.4488 75.0532C23.0022 74.4494 23.6261 74.1576 24.3304 74.1777C25.0247 74.1878 25.6587 74.4595 26.2322 74.9727C26.8058 75.4959 27.1378 76.0896 27.2385 76.7738L27.6007 76.3713L29.0698 77.7096L27.3894 79.5611L25.9404 78.243C26.2322 77.5688 26.1416 77.0254 25.6888 76.6128C25.3668 76.321 25.0851 76.311 24.8436 76.5827C24.7229 76.7135 24.6826 76.8543 24.7128 77.0053C24.7329 77.1562 24.8839 77.5587 25.1455 78.2329C25.4977 79.1284 25.709 79.7523 25.7895 80.0944C25.8398 80.2655 25.8498 80.4667 25.8498 80.6982C25.8498 80.9296 25.8197 81.151 25.7693 81.3522C25.6587 81.8151 25.4473 82.2176 25.1253 82.5798C24.6222 83.1232 23.9984 83.3949 23.2537 83.405ZM32.642 89.9757L25.3065 85.9205L26.3228 84.0791L26.9165 84.4112L29.1302 80.4064L28.5264 80.0743L29.5427 78.2329L36.8883 82.2981L35.5299 84.7634L33.5073 83.6464L33.8494 83.0226L32.0986 82.0566L31.4445 83.244L32.9639 84.0791L32.0986 85.6489L30.5792 84.8036L29.8849 86.0614L31.6357 87.0274L31.9778 86.4035L33.9903 87.5205L32.642 89.9757ZM46.1054 87.3192C46.0048 87.762 45.7935 88.1343 45.4816 88.4462C45.1696 88.7481 44.8074 88.9393 44.3948 89.0198L45.1193 91.2536L45.7331 91.3945L45.2501 93.4472L42.171 92.7227L41.1245 88.7883L40.068 88.5468L39.7259 89.9958L40.3699 90.1468L39.8869 92.1995L35.238 91.1127L35.721 89.06L36.4153 89.221L37.4618 84.7634L36.7675 84.6024L37.2505 82.5497L41.8993 83.6364C42.322 83.737 42.7043 83.8276 43.0565 83.9282C43.4087 84.0288 43.7106 84.1194 43.9621 84.1999C44.2137 84.2804 44.4351 84.381 44.6363 84.4716C45.1998 84.7432 45.6224 85.1256 45.9042 85.6388C46.1759 86.162 46.2463 86.7255 46.1054 87.3192ZM57.8985 92.7227L57.3954 90.6801L58.1803 90.4889L57.0936 86.0413L56.3087 86.2325L55.9766 84.864L56.037 86.5042L55.3829 86.5243L52.978 93.3667L50.2411 93.4573L47.2022 86.796L46.5482 86.8161L46.4777 84.7131L51.197 84.5521L51.2674 86.6551L50.5228 86.6853L51.9617 90.3883L53.1994 86.5947L52.4749 86.6249L52.4145 84.5219L55.8559 84.4011L55.8056 84.1898L60.6758 83.0025L61.1789 85.0451L60.4041 85.2363L61.4908 89.6839L62.2757 89.4927L62.7788 91.5354L57.8985 92.7227ZM71.7041 86.8161C71.3318 87.6714 70.5973 88.3657 69.4904 88.9091C67.981 89.6537 66.6629 89.8046 65.546 89.3719C64.429 88.9393 63.5939 88.1645 63.0404 87.0274C62.4769 85.8904 62.3662 84.7432 62.6882 83.5961C63.0102 82.449 63.7448 81.5937 64.8818 81.0302C65.8076 80.5774 66.6729 80.4366 67.4779 80.6076L67.2163 80.0844L69.108 79.1586L70.5268 82.0365L68.5546 83.0025C68.2729 82.6905 67.9609 82.4893 67.6188 82.4088C67.2767 82.3283 66.9547 82.3585 66.6428 82.5094C65.7875 82.932 65.717 83.8779 66.4415 85.347C67.166 86.8262 67.971 87.3394 68.8565 86.9067C69.6313 86.5243 69.8325 85.7092 69.4703 84.4615L71.8752 84.1798C72.1268 85.0954 72.0664 85.9709 71.7041 86.8161ZM75.3769 85.4376L73.9883 83.8578L74.5015 83.405L71.4828 79.9636L70.9595 80.4265L69.5709 78.8467L75.8901 73.3124L77.7416 75.4255L76.0108 76.9449L75.548 76.4116L74.0487 77.7298L74.9442 78.7461L76.2523 77.599L77.4296 78.9372L76.1215 80.0844L77.0674 81.1711L78.5667 79.8529L78.1038 79.3196L79.8345 77.8002L81.686 79.9133L75.3769 85.4376ZM83.6985 50.7827C83.6985 65.5945 68.6049 77.599 49.9996 77.599C31.3842 77.599 16.3006 65.5945 16.3006 50.7827C16.3006 50.5211 16.3107 50.2594 16.3308 49.9978H4.9402C4.9402 25.1337 25.1656 4.90827 50.0298 4.90827C74.8939 4.90827 95.1193 25.1337 95.1193 49.9978H83.6683C83.6784 50.2594 83.6985 50.5211 83.6985 50.7827Z" fill="#515150"/>
<path d="M50 100C22.4291 100 0 77.5709 0 50C0 22.4291 22.4291 0 50 0C77.5709 0 100 22.4291 100 50C100 77.5709 77.5709 100 50 100ZM50 1.4993C23.2542 1.4993 1.4993 23.2542 1.4993 50C1.4993 76.7458 23.2542 98.5007 50 98.5007C76.7458 98.5007 98.5007 76.7458 98.5007 50C98.5007 23.2542 76.7458 1.4993 50 1.4993Z" fill="#515150"/>
</svg>
