<svg width="100" height="100" viewBox="0 0 100 100" fill="none" xmlns="http://www.w3.org/2000/svg">
<path d="M49.9954 100C47.7886 100 45.7018 99.1413 44.1413 97.5716L2.42382 55.8541C-0.807941 52.6223 -0.807941 47.3777 2.42382 44.1459L44.1413 2.42844C45.7018 0.867964 47.7886 0 49.9954 0C52.2022 0 54.289 0.85873 55.8495 2.42844L97.567 44.1459C99.1274 45.7064 99.9954 47.7839 99.9954 50C99.9954 52.2161 99.1367 54.2936 97.567 55.8541L55.8495 97.5716C54.289 99.1413 52.2115 100 49.9954 100ZM49.9954 1.4035C48.1579 1.4035 46.422 2.12372 45.1201 3.42566L3.40258 45.1431C0.715603 47.8301 0.715603 52.1976 3.40258 54.8846L45.1201 96.602C46.422 97.904 48.1487 98.6242 49.9954 98.6242C51.8329 98.6242 53.5688 97.904 54.8708 96.602L96.5882 54.8846C97.8901 53.5826 98.6104 51.856 98.6104 50.0092C98.6104 48.1718 97.8901 46.4358 96.5882 45.1339L54.8708 3.41645C53.5688 2.12374 51.8421 1.4035 49.9954 1.4035Z" fill="#58595B"/>
<path d="M47.1338 56.998H70.1338H89.2099C90.1022 56.998 90.5478 58.0781 89.915 58.7072L53.1995 95.2117C51.6463 96.756 49.14 96.7639 47.577 95.2295L8.63379 56.998H47.1338Z" fill="#515150"/>
<path d="M49.9956 96.5054C47.7703 96.5054 45.6835 95.6374 44.1045 94.0677L5.93279 55.896C2.68256 52.6457 2.68256 47.3641 5.93279 44.1231L44.1045 5.95136C45.6743 4.38164 47.7703 3.51367 49.9956 3.51367C52.2209 3.51367 54.3077 4.38164 55.8866 5.95136L94.0584 44.1231C95.6281 45.6928 96.496 47.7889 96.496 50.0142C96.496 52.2395 95.6281 54.3262 94.0584 55.9052L55.8866 94.077C54.3169 95.6374 52.2209 96.5054 49.9956 96.5054ZM49.9956 6.28376C48.509 6.28376 47.1147 6.86548 46.0713 7.90888L7.89955 46.0806C5.73889 48.2413 5.73889 51.7685 7.89955 53.9292L46.0713 92.1009C47.1239 93.1536 48.5182 93.7261 49.9956 93.7261C51.4822 93.7261 52.8765 93.1443 53.9199 92.1009L92.0916 53.9292C93.1443 52.8766 93.7167 51.4823 93.7167 50.0049C93.7167 48.5183 93.135 47.124 92.0916 46.0806L53.9199 7.90888C52.8765 6.85625 51.4822 6.28376 49.9956 6.28376Z" fill="#515150"/>
<path d="M56.0708 34.1928C56.3478 33.8512 56.671 33.5834 57.0219 33.3802C56.8834 33.3248 56.7541 33.251 56.6433 33.1679L51.8141 29.2251L55.1567 26.5012C55.3967 26.3442 55.6645 26.2704 55.9415 26.2334C55.6091 26.0118 55.2952 25.7348 55.0366 25.4024L55.0274 25.3932L54.8243 25.1162C54.7688 25.0331 54.7135 24.9592 54.6673 24.8761C54.5011 24.5899 54.3718 24.2851 54.2703 23.9712C54.1225 24.2482 53.9471 24.516 53.707 24.7284L50.0043 27.7477L46.3016 24.7284C46.0708 24.5252 45.8861 24.2574 45.7384 23.9712C45.646 24.2851 45.5168 24.5899 45.3413 24.8761C45.2952 24.9592 45.2398 25.0331 45.1844 25.1162L44.9812 25.3932L44.972 25.4024C44.7042 25.7348 44.3995 26.0118 44.0579 26.2334C44.3349 26.2704 44.6026 26.3442 44.8427 26.5012L48.1853 29.2251L43.3561 33.1679C43.2453 33.251 43.116 33.3248 42.9775 33.3802C43.3284 33.5926 43.6516 33.8604 43.9286 34.1928L44.104 34.4329C44.1502 34.4975 44.1964 34.5714 44.2333 34.636C44.3718 34.8669 44.4734 35.1069 44.5565 35.3562C44.6119 35.2085 44.6858 35.0608 44.7966 34.9407L49.9951 30.7025L55.1936 34.9407C55.3044 35.0608 55.3783 35.2085 55.4337 35.3562C55.5168 35.1069 55.6276 34.8576 55.7569 34.636C55.7938 34.5622 55.84 34.4975 55.8861 34.4329L56.0708 34.1928ZM46.237 26.6028C45.9138 26.335 45.7476 26.0026 45.8677 25.8456C45.9877 25.6979 46.357 25.7902 46.6802 26.058L49.3672 28.2556L48.8132 28.708L46.237 26.6028ZM45.4891 33.3618C45.1659 33.6296 44.7966 33.7219 44.6765 33.5742C44.5565 33.4264 44.7134 33.0848 45.0459 32.817L53.3192 26.058C53.6424 25.7902 54.0117 25.6979 54.1317 25.8456C54.2518 25.9934 54.0948 26.335 53.7624 26.6028L45.4891 33.3618ZM55.3321 33.5649C55.2121 33.7127 54.8427 33.6203 54.5196 33.3525L50.6322 30.1762L51.1954 29.7237L54.972 32.8078C55.2859 33.0755 55.4522 33.4172 55.3321 33.5649Z" fill="#515150"/>
<path d="M41.3615 24.2468C40.2904 23.8128 39.1916 23.4527 38.0928 23.0926C38.102 23.1572 38.102 23.2218 38.1113 23.2865C38.2498 24.1821 38.7114 24.9947 39.4132 25.5672C40.9737 26.8414 43.2728 26.6106 44.5471 25.0409L44.6671 24.8931C44.7317 24.7916 44.8056 24.69 44.8702 24.5792C45.138 24.1267 45.3135 23.6004 45.3504 23.0741C45.3412 23.0187 45.3504 23.0464 45.3412 22.9725C45.3504 22.714 45.3596 22.6401 45.3227 22.2431C45.3135 22.123 45.2858 21.9753 45.2304 21.7814C45.0272 21.0427 44.5932 20.3871 44.0208 19.8885C43.7253 19.63 43.2913 19.4084 42.922 19.2791C41.9155 18.9282 40.7798 19.0483 39.8656 19.593C39.5886 19.7592 39.5332 19.8146 39.3209 19.9901L39.7548 20.1378C40.6597 20.4518 41.5646 20.7657 42.4695 21.0796C44.0577 21.6521 42.7096 24.7916 41.3615 24.2468Z" fill="#515150"/>
<path d="M59.1727 35.1964C60.0684 35.5565 60.9918 35.8612 61.9151 36.1659C61.9151 36.1105 61.9059 36.0551 61.8966 35.9997C61.7858 35.2518 61.3888 34.5685 60.8071 34.0883C59.5051 33.0265 57.5753 33.2204 56.5135 34.5223L56.4211 34.6423C56.3657 34.7254 56.3011 34.8085 56.2549 34.9009C56.0241 35.2887 55.8856 35.7135 55.8486 36.1567C55.8579 36.2028 55.8579 36.1751 55.8579 36.2398C55.8394 36.5168 55.8486 36.4614 55.9502 37.237C56.1164 37.8556 56.4857 38.4004 56.9659 38.816C57.2152 39.0376 57.5753 39.2222 57.8893 39.333C58.7295 39.6193 59.6806 39.5269 60.447 39.0745C60.6778 38.936 60.724 38.8898 60.8994 38.7421L60.5393 38.6128C59.7821 38.345 59.025 38.0865 58.2678 37.8187C56.9197 37.3663 58.0462 34.7347 59.1727 35.1964Z" fill="#515150"/>
<path d="M54.6572 23.0838C54.7034 23.6101 54.8696 24.1272 55.1374 24.5889C55.202 24.6997 55.2759 24.792 55.3405 24.9028L55.4513 25.0506C56.7256 26.6111 59.0247 26.8511 60.5852 25.5769C61.2777 25.0044 61.7487 24.1919 61.8872 23.2962C61.8964 23.2316 61.9056 23.1669 61.9056 23.1023C60.8068 23.4716 59.708 23.8317 58.6369 24.2565C57.2888 24.8105 55.9407 21.6619 57.5381 21.1078C58.443 20.7939 59.3479 20.4799 60.2528 20.166L60.6868 20.0183C60.4744 19.8428 60.419 19.7874 60.142 19.6212C59.2279 19.0764 58.0921 18.9656 57.0857 19.3073C56.7163 19.4366 56.2823 19.6582 55.9869 19.9167C55.4052 20.4153 54.9712 21.0709 54.7773 21.8096C54.7219 22.0035 54.6942 22.1512 54.6849 22.2713C54.648 22.6683 54.6572 22.7422 54.6665 23.0007C54.6572 23.0561 54.6665 23.0284 54.6572 23.0838Z" fill="#515150"/>
<path d="M43.753 34.9117C43.6976 34.8193 43.6422 34.7362 43.5868 34.6531L43.4944 34.5331C42.4326 33.2311 40.5028 33.0372 39.2008 34.0991C38.6191 34.5792 38.2221 35.2625 38.1113 36.0105C38.102 36.0659 38.102 36.1213 38.0928 36.1767C39.0161 35.8719 39.9303 35.5672 40.8259 35.2071C41.9524 34.7455 43.0789 37.377 41.7493 37.8387C40.9921 38.1065 40.235 38.365 39.4778 38.6328L39.1177 38.7621C39.2932 38.9098 39.3393 38.956 39.5702 39.0945C40.3365 39.5469 41.2876 39.6393 42.1279 39.353C42.4326 39.2422 42.7927 39.0575 43.0512 38.8359C43.5314 38.4204 43.9007 37.8757 44.0669 37.257C44.1777 36.4906 44.1777 36.5368 44.1593 36.2598C44.1593 36.1951 44.1593 36.2228 44.1685 36.1767C44.1223 35.7242 43.9838 35.2995 43.753 34.9117Z" fill="#515150"/>
<path d="M34.9967 53.8501H32.6367L30.8767 50.4501L30.4567 50.2101L30.7567 49.6101H31.1667C31.4667 49.6101 31.7033 49.5034 31.8767 49.2901C32.05 49.0701 32.1367 48.7634 32.1367 48.3701C32.1367 47.9368 32.0233 47.5901 31.7967 47.3301C31.5767 47.0634 31.25 46.9301 30.8167 46.9301C30.5567 46.9301 30.3133 47.0068 30.0867 47.1601V52.7401L31.2367 53.0401L30.8367 53.8401H26.9967V53.1301L27.9367 52.3101V47.0901L26.7967 46.7901L27.1967 45.9901H29.1567C29.7167 45.9901 30.27 45.9701 30.8167 45.9301C31.2167 45.9034 31.51 45.8901 31.6967 45.8901C32.2433 45.8901 32.7267 45.9834 33.1467 46.1701C33.5733 46.3501 33.9033 46.6001 34.1367 46.9201C34.37 47.2401 34.4867 47.6001 34.4867 48.0001C34.4867 48.4534 34.2867 48.8734 33.8867 49.2601C33.4933 49.6468 33 49.9501 32.4067 50.1701L33.2967 50.4101L34.4467 52.6201L35.3967 53.0501L34.9967 53.8501ZM42.2079 53.8501H35.6979V53.1401L36.6379 52.4001V47.1001L35.4979 46.7901L35.8979 45.9901H42.1079L42.9379 45.8101V48.5101L42.2379 48.8101L40.9779 46.9401H38.7879V49.3601H39.7579L40.4879 48.3301H41.1979V51.1701L40.3979 51.5701L39.7279 50.3101H38.7879V52.9001H40.8879L42.3379 50.8301L43.0379 51.1301V54.0301L42.2079 53.8501ZM48.11 49.9201C48.41 49.9201 48.6467 49.7968 48.82 49.5501C48.9934 49.3034 49.08 48.9634 49.08 48.5301C49.08 48.0634 48.9667 47.6834 48.74 47.3901C48.52 47.0901 48.1934 46.9401 47.76 46.9401C47.5 46.9401 47.2567 47.0168 47.03 47.1701V52.7001L48.88 53.0501L48.48 53.8501H43.94V53.1401L44.88 52.4001V47.1301L43.74 46.7901L44.14 45.9901H46.1C46.66 45.9901 47.2134 45.9701 47.76 45.9301C48.16 45.9034 48.4534 45.8901 48.64 45.8901C49.1867 45.8901 49.67 45.9934 50.09 46.2001C50.5167 46.4068 50.8467 46.6901 51.08 47.0501C51.3134 47.4101 51.43 47.8101 51.43 48.2501C51.43 48.7301 51.2367 49.1868 50.85 49.6201C50.47 50.0468 49.9867 50.3834 49.4 50.6301C48.82 50.8701 48.26 50.9768 47.72 50.9501L47.3 50.7101L47.7 49.9101H48.11V49.9201ZM59.5548 53.8501H55.4148V53.1401L56.6048 52.5201L56.0948 51.2601H53.1748L52.7648 52.2801L54.1648 53.0501L53.7648 53.8501H50.4248V53.1401L51.5948 52.2701L53.9948 46.3101L56.1348 45.8001L58.9148 52.5801L59.9548 53.0501L59.5548 53.8501ZM54.6148 47.6301L53.5448 50.3101H55.7048L54.6148 47.6301ZM64.0984 53.8501H60.2584V53.1401L61.1984 52.3201V47.1001L60.0584 46.8001L60.4584 46.0001H64.2984V46.7101L63.3484 47.5401V52.7501L64.4984 53.0501L64.0984 53.8501ZM73.1021 53.8501H70.7421L68.9821 50.4501L68.5621 50.2101L68.8621 49.6101H69.2721C69.5721 49.6101 69.8088 49.5034 69.9821 49.2901C70.1555 49.0701 70.2421 48.7634 70.2421 48.3701C70.2421 47.9368 70.1288 47.5901 69.9021 47.3301C69.6821 47.0634 69.3555 46.9301 68.9221 46.9301C68.6621 46.9301 68.4188 47.0068 68.1921 47.1601V52.7401L69.3421 53.0401L68.9421 53.8401H65.1021V53.1301L66.0421 52.3101V47.0901L64.9021 46.7901L65.3021 45.9901H67.2621C67.8221 45.9901 68.3755 45.9701 68.9221 45.9301C69.3221 45.9034 69.6155 45.8901 69.8021 45.8901C70.3488 45.8901 70.8321 45.9834 71.2521 46.1701C71.6788 46.3501 72.0088 46.6001 72.2421 46.9201C72.4755 47.2401 72.5921 47.6001 72.5921 48.0001C72.5921 48.4534 72.3921 48.8734 71.9921 49.2601C71.5988 49.6468 71.1055 49.9501 70.5121 50.1701L71.4021 50.4101L72.5521 52.6201L73.5021 53.0501L73.1021 53.8501Z" fill="#515150"/>
<path d="M26.9542 66.2801C26.9542 66.0868 26.8775 65.9001 26.7242 65.7201C26.5708 65.5401 26.3808 65.3734 26.1542 65.2201C25.9275 65.0668 25.6142 64.8734 25.2142 64.6401C24.7208 64.3534 24.3242 64.1068 24.0242 63.9001C23.7242 63.6868 23.4675 63.4401 23.2542 63.1601C23.0408 62.8801 22.9342 62.5701 22.9342 62.2301C22.9342 61.8968 23.0942 61.5401 23.4142 61.1601C23.7408 60.7734 24.1375 60.4501 24.6042 60.1901C25.0708 59.9234 25.5008 59.7901 25.8942 59.7901C26.3675 59.7901 26.9175 59.8401 27.5442 59.9401C28.1775 60.0401 28.6408 60.1468 28.9342 60.2601V62.6001H27.6542C27.4075 62.0668 27.1275 61.6501 26.8142 61.3501C26.5075 61.0434 26.1875 60.8901 25.8542 60.8901C25.6542 60.8901 25.4975 60.9534 25.3842 61.0801C25.2708 61.2068 25.2142 61.3701 25.2142 61.5701C25.2142 61.7834 25.2908 61.9868 25.4442 62.1801C25.6042 62.3668 25.8008 62.5401 26.0342 62.7001C26.2742 62.8534 26.5975 63.0468 27.0042 63.2801C27.4842 63.5534 27.8708 63.7934 28.1642 64.0001C28.4642 64.2001 28.7175 64.4368 28.9242 64.7101C29.1308 64.9834 29.2342 65.2868 29.2342 65.6201C29.2342 65.9534 29.0608 66.3134 28.7142 66.7001C28.3742 67.0801 27.9575 67.4034 27.4642 67.6701C26.9708 67.9301 26.5208 68.0601 26.1142 68.0601C25.6208 68.0601 25.0342 68.0101 24.3542 67.9101C23.6742 67.8101 23.1842 67.7034 22.8842 67.5901V65.2501H24.1642C24.4308 65.7901 24.7408 66.2101 25.0942 66.5101C25.4475 66.8101 25.8042 66.9601 26.1642 66.9601C26.4042 66.9601 26.5942 66.8934 26.7342 66.7601C26.8808 66.6268 26.9542 66.4668 26.9542 66.2801ZM36.4461 67.8501H29.9361V67.1401L30.8761 66.4001V61.1001L29.7361 60.7901L30.1361 59.9901H36.3461L37.1761 59.8101V62.5101L36.4761 62.8101L35.2161 60.9401H33.0261V63.3601H33.9961L34.7261 62.3301H35.4361V65.1701L34.6361 65.5701L33.9661 64.3101H33.0261V66.9001H35.1261L36.5761 64.8301L37.2761 65.1301V68.0301L36.4461 67.8501ZM46.1783 67.8501H43.8183L42.0583 64.4501L41.6383 64.2101L41.9383 63.6101H42.3483C42.6483 63.6101 42.885 63.5034 43.0583 63.2901C43.2317 63.0701 43.3183 62.7634 43.3183 62.3701C43.3183 61.9368 43.205 61.5901 42.9783 61.3301C42.7583 61.0634 42.4317 60.9301 41.9983 60.9301C41.7383 60.9301 41.495 61.0068 41.2683 61.1601V66.7401L42.4183 67.0401L42.0183 67.8401H38.1783V67.1301L39.1183 66.3101V61.0901L37.9783 60.7901L38.3783 59.9901H40.3383C40.8983 59.9901 41.4517 59.9701 41.9983 59.9301C42.3983 59.9034 42.6917 59.8901 42.8783 59.8901C43.425 59.8901 43.9083 59.9834 44.3283 60.1701C44.755 60.3501 45.085 60.6001 45.3183 60.9201C45.5517 61.2401 45.6683 61.6001 45.6683 62.0001C45.6683 62.4534 45.4683 62.8734 45.0683 63.2601C44.675 63.6468 44.1817 63.9501 43.5883 64.1701L44.4783 64.4101L45.6283 66.6201L46.5783 67.0501L46.1783 67.8501ZM54.7395 61.5701L52.3395 67.5301L50.1995 68.0401L47.4195 61.2601L46.3795 60.7901L46.7795 59.9901H50.9195V60.7001L49.7295 61.3201L51.7095 66.2101L53.5695 61.5601L52.1695 60.7901L52.5695 59.9901H55.9095V60.7001L54.7395 61.5701ZM60.1531 67.8501H56.3131V67.1401L57.2531 66.3201V61.1001L56.1131 60.8001L56.5131 60.0001H60.3531V60.7101L59.4031 61.5401V66.7501L60.5531 67.0501L60.1531 67.8501ZM65.9568 59.7901C66.3702 59.7901 66.8502 59.8401 67.3968 59.9401C67.9435 60.0401 68.3435 60.1468 68.5968 60.2601V62.5001H67.3168C67.0702 62.0268 66.7802 61.6801 66.4468 61.4601C66.1202 61.2401 65.7635 61.1301 65.3768 61.1301C65.0502 61.1301 64.7502 61.2401 64.4768 61.4601C64.2102 61.6734 63.9968 61.9701 63.8368 62.3501C63.6835 62.7301 63.6068 63.1534 63.6068 63.6201C63.6068 64.1468 63.6868 64.6301 63.8468 65.0701C64.0068 65.5034 64.2502 65.8501 64.5768 66.1101C64.9035 66.3701 65.3068 66.5001 65.7868 66.5001C66.4202 66.5001 67.3135 66.2201 68.4668 65.6601L68.9268 66.4001L67.0868 67.8301C66.7668 67.9234 66.4602 67.9834 66.1668 68.0101C65.8802 68.0368 65.5668 68.0501 65.2268 68.0501C64.4468 68.0501 63.7568 67.8801 63.1568 67.5401C62.5568 67.2001 62.0902 66.7334 61.7568 66.1401C61.4235 65.5401 61.2568 64.8601 61.2568 64.1001C61.2568 63.3201 61.5035 62.6001 61.9968 61.9401C62.4968 61.2734 63.1135 60.7501 63.8468 60.3701C64.5868 59.9834 65.2902 59.7901 65.9568 59.7901ZM76.1336 67.8501H69.6236V67.1401L70.5636 66.4001V61.1001L69.4236 60.7901L69.8236 59.9901H76.0336L76.8636 59.8101V62.5101L76.1636 62.8101L74.9036 60.9401H72.7136V63.3601H73.6836L74.4136 62.3301H75.1236V65.1701L74.3236 65.5701L73.6536 64.3101H72.7136V66.9001H74.8136L76.2636 64.8301L76.9636 65.1301V68.0301L76.1336 67.8501ZM37.0098 73.5884C37.1582 73.6978 37.3066 73.7798 37.4551 73.8345C37.6113 73.8813 37.752 73.9126 37.877 73.9282C38.0176 73.9517 38.1582 73.9556 38.2988 73.9399C38.4316 73.9243 38.5684 73.8774 38.709 73.7993C38.8496 73.7212 39.0137 73.6392 39.2012 73.5532C39.3887 73.4673 39.6074 73.3931 39.8574 73.3306C40.1152 73.2603 40.4238 73.2251 40.7832 73.2251C40.9395 73.2251 41.1035 73.2563 41.2754 73.3188C41.4551 73.3813 41.627 73.4634 41.791 73.5649C41.9551 73.6587 42.1035 73.7642 42.2363 73.8813C42.377 73.9985 42.4824 74.1157 42.5527 74.2329C42.6309 74.3501 42.6855 74.5415 42.7168 74.8071C42.748 75.0649 42.7598 75.3462 42.752 75.6509C42.7441 75.9556 42.7168 76.2563 42.6699 76.5532C42.6309 76.8501 42.5723 77.0923 42.4941 77.2798C42.4004 77.4438 42.2207 77.6548 41.9551 77.9126C41.7285 78.1313 41.3887 78.4126 40.9355 78.7563C40.4824 79.1001 39.873 79.5103 39.1074 79.9868C39.5605 79.979 39.9395 79.9673 40.2441 79.9517C40.5566 79.9282 40.8105 79.9048 41.0059 79.8813C41.2324 79.8501 41.4121 79.8188 41.5449 79.7876C41.6621 79.7407 41.7871 79.6743 41.9199 79.5884C42.0293 79.5103 42.1465 79.4087 42.2715 79.2837C42.4043 79.1587 42.5332 78.9946 42.6582 78.7915C42.6816 79.2134 42.7051 79.5454 42.7285 79.7876C42.7441 79.9282 42.7559 80.0493 42.7637 80.1509C42.7715 80.2446 42.7793 80.354 42.7871 80.479C42.7949 80.5884 42.7988 80.7134 42.7988 80.854C42.8066 80.9946 42.8184 81.1431 42.834 81.2993C42.4434 81.1978 42.0879 81.1196 41.7676 81.0649C41.4473 81.0024 41.1738 80.9595 40.9473 80.936C40.6816 80.9048 40.4434 80.8892 40.2324 80.8892C40.0137 80.897 39.7715 80.9165 39.5059 80.9478C39.2715 80.979 38.9902 81.0259 38.6621 81.0884C38.3418 81.1431 37.9785 81.2251 37.5723 81.3345C37.541 81.2485 37.5137 81.1626 37.4902 81.0767C37.4668 80.9829 37.4473 80.8931 37.4316 80.8071C37.4082 80.7134 37.3887 80.6196 37.373 80.5259C37.3574 80.4321 37.3418 80.3423 37.3262 80.2563C37.3105 80.1782 37.2988 80.0962 37.291 80.0103C37.2832 79.9243 37.2754 79.8423 37.2676 79.7642C37.8926 79.3657 38.4004 79.0063 38.791 78.686C39.1816 78.3579 39.4902 78.0806 39.7168 77.854C39.9746 77.5884 40.1699 77.3462 40.3027 77.1274C40.4355 76.8618 40.5449 76.5688 40.6309 76.2485C40.7168 75.9282 40.7441 75.6313 40.7129 75.3579C40.6895 75.0845 40.5957 74.8618 40.4316 74.6899C40.2676 74.5103 40.0059 74.4321 39.6465 74.4556C39.4121 74.4712 39.1895 74.5532 38.9785 74.7017C38.7754 74.8501 38.5879 75.0298 38.416 75.2407C38.2441 75.4517 38.0918 75.6782 37.959 75.9204C37.8262 76.1548 37.7129 76.3774 37.6191 76.5884C37.5332 76.7993 37.4629 76.9751 37.4082 77.1157C37.3613 77.2563 37.3379 77.3306 37.3379 77.3384C37.3301 77.354 37.3184 77.2954 37.3027 77.1626C37.2949 77.0298 37.2832 76.8657 37.2676 76.6704C37.2598 76.4673 37.248 76.2563 37.2324 76.0376C37.2168 75.8188 37.2012 75.6353 37.1855 75.4868C37.1777 75.3696 37.166 75.2173 37.1504 75.0298C37.127 74.7251 37.0801 74.2446 37.0098 73.5884ZM46.9473 73.272C47.3066 73.2642 47.6699 73.3462 48.0371 73.5181C48.4043 73.6899 48.7363 73.9517 49.0332 74.3032C49.3301 74.647 49.5723 75.0806 49.7598 75.604C49.9473 76.1274 50.0449 76.7407 50.0527 77.4438C50.0605 77.9126 50.0254 78.3384 49.9473 78.7212C49.8691 79.104 49.7637 79.4478 49.6309 79.7524C49.498 80.0493 49.3457 80.3149 49.1738 80.5493C49.0098 80.7759 48.8418 80.9712 48.6699 81.1353C48.498 81.2915 48.334 81.4165 48.1777 81.5103C48.0215 81.604 47.8887 81.6665 47.7793 81.6978C47.6387 81.7446 47.4707 81.7876 47.2754 81.8267C47.0801 81.8579 46.877 81.8774 46.666 81.8853C46.4551 81.9009 46.2441 81.8892 46.0332 81.8501C45.8301 81.8188 45.6504 81.7563 45.4941 81.6626C45.3379 81.5688 45.1543 81.436 44.9434 81.2642C44.7402 81.0845 44.5449 80.8423 44.3574 80.5376C44.1699 80.2251 44.0098 79.8345 43.877 79.3657C43.7441 78.897 43.6777 78.3228 43.6777 77.6431C43.6777 76.9634 43.7559 76.354 43.9121 75.8149C44.0762 75.2759 44.2988 74.8188 44.5801 74.4438C44.8691 74.0688 45.2129 73.7837 45.6113 73.5884C46.0176 73.3853 46.4629 73.2798 46.9473 73.272ZM45.2949 77.6313C45.2871 78.0923 45.3145 78.4946 45.377 78.8384C45.4395 79.1821 45.5137 79.4712 45.5996 79.7056C45.6855 79.9399 45.7715 80.1274 45.8574 80.2681C45.9512 80.4009 46.0215 80.4946 46.0684 80.5493C46.1152 80.6196 46.2012 80.6665 46.3262 80.6899C46.4512 80.7134 46.584 80.7251 46.7246 80.7251C46.8652 80.7173 47.002 80.6978 47.1348 80.6665C47.2676 80.6274 47.3691 80.5767 47.4395 80.5142C47.4785 80.4751 47.5332 80.3774 47.6035 80.2212C47.6816 80.0649 47.7559 79.8618 47.8262 79.6118C47.9043 79.3618 47.9746 79.0728 48.0371 78.7446C48.0996 78.4087 48.1426 78.0493 48.166 77.6665C48.1895 77.2368 48.1895 76.8423 48.166 76.4829C48.1426 76.1157 48.1074 75.7954 48.0605 75.522C48.0137 75.2485 47.959 75.022 47.8965 74.8423C47.834 74.6626 47.7676 74.5415 47.6973 74.479C47.5957 74.3853 47.4707 74.3188 47.3223 74.2798C47.1816 74.2407 47.0371 74.2251 46.8887 74.2329C46.748 74.2407 46.6113 74.2681 46.4785 74.3149C46.3535 74.3618 46.2559 74.4243 46.1855 74.5024C46.0449 74.6587 45.9199 74.8228 45.8105 74.9946C45.7012 75.1665 45.6113 75.3735 45.541 75.6157C45.4707 75.8579 45.4121 76.1431 45.3652 76.4712C45.3262 76.7915 45.3027 77.1782 45.2949 77.6313ZM50.7793 73.5884C50.9277 73.6978 51.0762 73.7798 51.2246 73.8345C51.3809 73.8813 51.5215 73.9126 51.6465 73.9282C51.7871 73.9517 51.9277 73.9556 52.0684 73.9399C52.2012 73.9243 52.3379 73.8774 52.4785 73.7993C52.6191 73.7212 52.7832 73.6392 52.9707 73.5532C53.1582 73.4673 53.377 73.3931 53.627 73.3306C53.8848 73.2603 54.1934 73.2251 54.5527 73.2251C54.709 73.2251 54.873 73.2563 55.0449 73.3188C55.2246 73.3813 55.3965 73.4634 55.5605 73.5649C55.7246 73.6587 55.873 73.7642 56.0059 73.8813C56.1465 73.9985 56.252 74.1157 56.3223 74.2329C56.4004 74.3501 56.4551 74.5415 56.4863 74.8071C56.5176 75.0649 56.5293 75.3462 56.5215 75.6509C56.5137 75.9556 56.4863 76.2563 56.4395 76.5532C56.4004 76.8501 56.3418 77.0923 56.2637 77.2798C56.1699 77.4438 55.9902 77.6548 55.7246 77.9126C55.498 78.1313 55.1582 78.4126 54.7051 78.7563C54.252 79.1001 53.6426 79.5103 52.877 79.9868C53.3301 79.979 53.709 79.9673 54.0137 79.9517C54.3262 79.9282 54.5801 79.9048 54.7754 79.8813C55.002 79.8501 55.1816 79.8188 55.3145 79.7876C55.4316 79.7407 55.5566 79.6743 55.6895 79.5884C55.7988 79.5103 55.916 79.4087 56.041 79.2837C56.1738 79.1587 56.3027 78.9946 56.4277 78.7915C56.4512 79.2134 56.4746 79.5454 56.498 79.7876C56.5137 79.9282 56.5254 80.0493 56.5332 80.1509C56.541 80.2446 56.5488 80.354 56.5566 80.479C56.5645 80.5884 56.5684 80.7134 56.5684 80.854C56.5762 80.9946 56.5879 81.1431 56.6035 81.2993C56.2129 81.1978 55.8574 81.1196 55.5371 81.0649C55.2168 81.0024 54.9434 80.9595 54.7168 80.936C54.4512 80.9048 54.2129 80.8892 54.002 80.8892C53.7832 80.897 53.541 80.9165 53.2754 80.9478C53.041 80.979 52.7598 81.0259 52.4316 81.0884C52.1113 81.1431 51.748 81.2251 51.3418 81.3345C51.3105 81.2485 51.2832 81.1626 51.2598 81.0767C51.2363 80.9829 51.2168 80.8931 51.2012 80.8071C51.1777 80.7134 51.1582 80.6196 51.1426 80.5259C51.127 80.4321 51.1113 80.3423 51.0957 80.2563C51.0801 80.1782 51.0684 80.0962 51.0605 80.0103C51.0527 79.9243 51.0449 79.8423 51.0371 79.7642C51.6621 79.3657 52.1699 79.0063 52.5605 78.686C52.9512 78.3579 53.2598 78.0806 53.4863 77.854C53.7441 77.5884 53.9395 77.3462 54.0723 77.1274C54.2051 76.8618 54.3145 76.5688 54.4004 76.2485C54.4863 75.9282 54.5137 75.6313 54.4824 75.3579C54.459 75.0845 54.3652 74.8618 54.2012 74.6899C54.0371 74.5103 53.7754 74.4321 53.416 74.4556C53.1816 74.4712 52.959 74.5532 52.748 74.7017C52.5449 74.8501 52.3574 75.0298 52.1855 75.2407C52.0137 75.4517 51.8613 75.6782 51.7285 75.9204C51.5957 76.1548 51.4824 76.3774 51.3887 76.5884C51.3027 76.7993 51.2324 76.9751 51.1777 77.1157C51.1309 77.2563 51.1074 77.3306 51.1074 77.3384C51.0996 77.354 51.0879 77.2954 51.0723 77.1626C51.0645 77.0298 51.0527 76.8657 51.0371 76.6704C51.0293 76.4673 51.0176 76.2563 51.002 76.0376C50.9863 75.8188 50.9707 75.6353 50.9551 75.4868C50.9473 75.3696 50.9355 75.2173 50.9199 75.0298C50.8965 74.7251 50.8496 74.2446 50.7793 73.5884ZM57.9043 73.436C58.2793 73.5063 58.6074 73.5571 58.8887 73.5884C59.1699 73.6196 59.4082 73.6431 59.6035 73.6587C59.8301 73.6743 60.0254 73.6782 60.1895 73.6704C60.3535 73.6704 60.5605 73.6587 60.8105 73.6353C61.0215 73.6196 61.2871 73.6001 61.6074 73.5767C61.9355 73.5454 62.3223 73.5103 62.7676 73.4712C62.7441 73.6821 62.7207 73.8735 62.6973 74.0454C62.6816 74.2095 62.666 74.3501 62.6504 74.4673C62.6348 74.6079 62.623 74.7329 62.6152 74.8423C62.6074 74.9595 62.5957 75.0923 62.5801 75.2407C62.5645 75.3735 62.5488 75.5376 62.5332 75.7329C62.5254 75.9282 62.5176 76.1548 62.5098 76.4126C62.2129 75.9204 61.9434 75.5415 61.7012 75.2759C61.459 75.0024 61.248 74.7993 61.0684 74.6665C60.8652 74.5181 60.6816 74.4282 60.5176 74.397H60.0371C59.8965 74.397 59.7441 74.4009 59.5801 74.4087C59.416 74.4165 59.2676 74.4321 59.1348 74.4556L59.1816 77.2212C59.3379 77.0259 59.5098 76.8813 59.6973 76.7876C59.8848 76.6938 60.0684 76.6274 60.248 76.5884C60.4512 76.5493 60.6582 76.5337 60.8691 76.5415C61.416 76.5884 61.8379 76.6821 62.1348 76.8228C62.4395 76.9634 62.6582 77.1704 62.791 77.4438C62.8535 77.5845 62.9043 77.7993 62.9434 78.0884C62.9902 78.3696 63.0059 78.6743 62.9902 79.0024C62.9746 79.3306 62.9238 79.6548 62.8379 79.9751C62.752 80.2876 62.6152 80.5415 62.4277 80.7368C62.2402 80.9243 62.0566 81.0806 61.877 81.2056C61.6973 81.3228 61.5176 81.4204 61.3379 81.4985C61.1582 81.5688 60.9707 81.6196 60.7754 81.6509C60.5801 81.6821 60.373 81.7056 60.1543 81.7212C59.8027 81.7446 59.4668 81.7056 59.1465 81.604C58.8262 81.5024 58.5449 81.3657 58.3027 81.1938C58.0605 81.022 57.8652 80.8384 57.7168 80.6431C57.5684 80.4399 57.4863 80.2563 57.4707 80.0923C57.4551 79.9673 57.4473 79.8423 57.4473 79.7173C57.4473 79.6079 57.4512 79.4946 57.459 79.3774C57.4746 79.2603 57.502 79.1587 57.541 79.0728L60.5762 79.2837C60.2793 79.3774 60.0566 79.479 59.9082 79.5884C59.7598 79.6899 59.6543 79.7876 59.5918 79.8813C59.5137 79.9907 59.4824 80.1001 59.498 80.2095C59.5527 80.4907 59.6504 80.7212 59.791 80.9009C59.9316 81.0728 60.0918 81.1431 60.2715 81.1118C60.3652 81.0962 60.4707 81.0337 60.5879 80.9243C60.7129 80.8071 60.8301 80.6626 60.9395 80.4907C61.0566 80.3188 61.1582 80.1274 61.2441 79.9165C61.3379 79.6978 61.3965 79.479 61.4199 79.2603C61.4434 79.0415 61.459 78.811 61.4668 78.5688C61.4824 78.3267 61.4746 78.104 61.4434 77.9009C61.4121 77.6978 61.3574 77.5298 61.2793 77.397C61.2012 77.2563 61.0879 77.186 60.9395 77.186C60.8145 77.2017 60.6738 77.2524 60.5176 77.3384C60.3848 77.4165 60.2246 77.5337 60.0371 77.6899C59.8574 77.8462 59.6543 78.0728 59.4277 78.3696C59.2715 78.3306 59.1387 78.2915 59.0293 78.2524C58.9277 78.2056 58.8418 78.1665 58.7715 78.1353C58.6855 78.104 58.6191 78.0688 58.5723 78.0298C58.5254 77.9985 58.4629 77.9595 58.3848 77.9126C58.3223 77.8735 58.2441 77.8267 58.1504 77.772C58.0566 77.7095 57.9434 77.6353 57.8105 77.5493C57.8418 77.2446 57.8613 76.9868 57.8691 76.7759C57.877 76.5649 57.8848 76.3931 57.8926 76.2603V75.8735C57.8848 75.7642 57.8809 75.604 57.8809 75.3931C57.8809 75.2134 57.8809 74.9673 57.8809 74.6548C57.8809 74.3345 57.8887 73.9282 57.9043 73.436Z" fill="white"/>
</svg>
