<svg width="176" height="42" viewBox="0 0 176 42" fill="none" xmlns="http://www.w3.org/2000/svg">
  <path d="M17.6195 25.6894C17.6482 22.7523 16.9036 20.3638 15.9564 20.3545C15.0091 20.3453 14.218 22.7188 14.1893 25.6559C14.1605 28.593 14.9052 30.9816 15.8524 30.9908C16.7996 31.0001 17.5908 28.6266 17.6195 25.6894Z" fill="#5B9FE8"/>
  <path d="M12.1262 25.0223C13.7384 22.567 14.4034 20.1551 13.6116 19.6352C12.8197 19.1152 10.8709 20.6841 9.2587 23.1394C7.64647 25.5947 6.98145 28.0066 7.77326 28.5266C8.56513 29.0465 10.5139 27.4776 12.1262 25.0223Z" fill="#03BE63"/>
  <path d="M7.85877 21.4994C10.5425 20.3057 12.406 18.6363 12.021 17.7707C11.636 16.9052 9.14837 17.1713 6.46459 18.3651C3.78084 19.5588 1.91734 21.2282 2.30233 22.0938C2.68731 22.9593 5.17502 22.6932 7.85877 21.4994Z" fill="#5B9FE8"/>
  <path d="M11.6988 15.3437C11.8429 14.4074 9.60628 13.2862 6.70324 12.8394C3.80013 12.3925 1.32989 12.7893 1.18579 13.7256C1.04169 14.6618 3.27828 15.783 6.18137 16.2298C9.08443 16.6767 11.5547 16.2799 11.6988 15.3437Z" fill="#03BE63"/>
  <path d="M12.7413 13.1134C13.3686 12.4037 12.0929 10.2514 9.89204 8.30628C7.69115 6.36114 5.39842 5.35969 4.77111 6.06949C4.14379 6.7793 5.41944 8.93156 7.62036 10.8767C9.82126 12.8219 12.114 13.8233 12.7413 13.1134Z" fill="#5B9FE8"/>
  <path d="M14.8171 11.8098C15.7286 11.5518 15.8191 9.05154 15.0194 6.22527C14.2197 3.39897 12.8324 1.31689 11.9209 1.57482C11.0094 1.83275 10.9188 4.333 11.7186 7.15932C12.5183 9.98556 13.9056 12.0677 14.8171 11.8098Z" fill="#03BE63"/>
  <path d="M20.4533 7.24747C21.3087 4.43748 21.2675 1.93593 20.3612 1.66008C19.455 1.38423 18.027 3.43854 17.1716 6.24852C16.3163 9.05848 16.3575 11.56 17.2638 11.8359C18.17 12.1117 19.598 10.0575 20.4533 7.24747Z" fill="#5B9FE8"/>
  <path d="M24.4811 11.0441C26.7196 9.1423 28.0371 7.01538 27.4237 6.29348C26.8104 5.57156 24.4985 6.52803 22.2601 8.42972C20.0216 10.3315 18.7041 12.4584 19.3174 13.1803C19.9307 13.9022 22.2426 12.9458 24.4811 11.0441Z" fill="#03BE63"/>
  <path d="M25.8125 16.417C28.7238 16.0275 30.9821 14.9507 30.8564 14.0117C30.7309 13.0728 28.2689 12.6275 25.3576 13.0169C22.4463 13.4064 20.188 14.4833 20.3136 15.4222C20.4392 16.3611 22.9011 16.8065 25.8125 16.417Z" fill="#5B9FE8"/>
  <path d="M29.5683 22.362C29.9702 21.5043 28.14 19.7985 25.4803 18.552C22.8207 17.3056 20.3387 16.9905 19.9367 17.8482C19.5347 18.706 21.3649 20.4118 24.0246 21.6583C26.6843 22.9047 29.1663 23.2198 29.5683 22.362Z" fill="#03BE63"/>
  <path d="M23.9736 28.691C24.7755 28.1868 24.1582 25.7622 22.5947 23.2756C21.0313 20.7891 19.1137 19.1821 18.3118 19.6863C17.5099 20.1905 18.1272 22.615 19.6907 25.1016C21.2541 27.5882 23.1717 29.1953 23.9736 28.691Z" fill="#5B9FE8"/>
  <text x="38" y="24" font-family="Instrument Sans, sans-serif" font-size="20" font-weight="700" letter-spacing="-0.4">
    <tspan fill="#FFFFFF">Clima</tspan><tspan fill="#03BE63">Nova</tspan>
  </text>
  <text x="97" y="37" font-family="Instrument Sans, sans-serif" font-size="10" font-weight="600" font-style="italic" fill="#90BFF1" letter-spacing="0.3">Energie</text>
</svg>
