<svg width="160" height="160" viewBox="0 0 160 160" fill="none" xmlns="http://www.w3.org/2000/svg">
  <circle cx="80" cy="80" r="80" fill="#EAF1FC"/>
  <!-- Calendar body -->
  <rect x="38" y="50" width="64" height="62" rx="10" fill="#1664BF" opacity="0.12"/>
  <rect x="38" y="50" width="64" height="62" rx="10" stroke="#1664BF" stroke-width="3.5"/>
  <!-- Calendar top bar -->
  <rect x="38" y="50" width="64" height="20" rx="10" fill="#1664BF"/>
  <rect x="38" y="60" width="64" height="10" fill="#1664BF"/>
  <!-- Hanger pins -->
  <line x1="57" y1="42" x2="57" y2="58" stroke="#1664BF" stroke-width="3.5" stroke-linecap="round"/>
  <line x1="83" y1="42" x2="83" y2="58" stroke="#1664BF" stroke-width="3.5" stroke-linecap="round"/>
  <!-- Grid dots -->
  <rect x="50" y="80" width="7" height="7" rx="2" fill="#1664BF"/>
  <rect x="65" y="80" width="7" height="7" rx="2" fill="#1664BF"/>
  <rect x="80" y="80" width="7" height="7" rx="2" fill="#03BE63"/>
  <rect x="50" y="95" width="7" height="7" rx="2" fill="#1664BF"/>
  <rect x="65" y="95" width="7" height="7" rx="2" fill="#1664BF"/>
  <!-- Phone badge -->
  <circle cx="108" cy="108" r="18" fill="#03BE63"/>
  <path d="M101 101.5C102.2 103.8 103.8 106 105.8 108C107.8 110 110 111.6 112.3 112.8L115 110.1C115.3 109.8 115.8 109.7 116.2 109.9C117.5 110.4 118.9 110.7 120.3 110.7C121 110.7 121.5 111.2 121.5 111.9V115.2C121.5 115.9 121 116.4 120.3 116.4C110.8 116.4 103.1 108.7 103.1 99.2C103.1 98.5 103.6 98 104.3 98H107.6C108.3 98 108.8 98.5 108.8 99.2C108.8 100.6 109.1 102 109.6 103.3C109.8 103.7 109.7 104.2 109.4 104.5L107 107.2" stroke="white" stroke-width="2" stroke-linecap="round" stroke-linejoin="round"/>
</svg>
