<svg width="15" height="15" viewBox="0 0 15 15" fill="none" xmlns="http://www.w3.org/2000/svg">
<path d="M6.48449 0.69121C6.78384 -0.230101 8.08725 -0.2301 8.3866 0.691211L9.45617 3.98301C9.59005 4.39503 9.974 4.67399 10.4072 4.67399H13.8684C14.8372 4.67399 15.2399 5.91361 14.4562 6.48301L11.656 8.51745C11.3056 8.77209 11.1589 9.22346 11.2928 9.63548L12.3623 12.9273C12.6617 13.8486 11.6072 14.6147 10.8235 14.0453L8.02333 12.0109C7.67284 11.7562 7.19825 11.7562 6.84776 12.0109L4.04759 14.0453C3.26388 14.6147 2.2094 13.8486 2.50875 12.9273L3.57832 9.63548C3.71219 9.22346 3.56554 8.77209 3.21505 8.51745L0.41488 6.48301C-0.368834 5.91361 0.0339417 4.67399 1.00267 4.67399H4.46386C4.89709 4.67399 5.28105 4.39503 5.41492 3.98301L6.48449 0.69121Z" fill="#FBBB07"/>
</svg>
