<svg width="32" height="32" viewBox="0 0 32 32" fill="none" xmlns="http://www.w3.org/2000/svg">
<path d="M9.31641 4.93358C13.0458 9.05966 19.1961 0.154514 22.8353 3.3863C24.9293 5.24583 24.2673 9.35162 21.5489 12.0266" stroke="#222222" stroke-width="1.5" stroke-linecap="round"/>
<path d="M18.3876 18.6401C18.4113 18.1941 18.5365 17.3779 17.8582 16.7578M17.8582 16.7578C17.6484 16.5658 17.3614 16.3926 16.9709 16.255C15.573 15.7623 13.856 17.4113 15.0706 18.9207C15.7236 19.7322 16.2269 19.9817 16.1796 20.9031C16.1462 21.5513 15.5094 22.2285 14.6704 22.4863C13.9414 22.7105 13.1373 22.4138 12.6287 21.8454C12.0076 21.1515 12.0704 20.4974 12.0651 20.2122M17.8582 16.7578L18.6237 15.9922M12.684 21.9319L11.957 22.6589" stroke="#222222" stroke-width="1.5" stroke-linecap="round" stroke-linejoin="round"/>
<path d="M24.3622 8.84657C25.5962 9.08357 25.873 9.86283 26.2414 12.0252C26.5732 13.9726 26.6663 16.3097 26.6663 17.3045C26.6324 17.6712 26.482 18.0133 26.2414 18.2924C23.6612 20.9965 18.5406 26.1029 15.9562 28.6396C14.9419 29.545 13.4116 29.5646 12.3352 28.7334C10.1311 26.7508 8.01329 24.5096 5.93871 22.4858C5.10527 21.4124 5.1248 19.8864 6.03292 18.875C8.76697 16.0388 13.7143 11.1839 16.5071 8.50183C16.7871 8.2619 17.1302 8.11182 17.4978 8.07813C18.1244 8.07797 19.1994 8.16219 20.2466 8.2229" stroke="#222222" stroke-width="1.5" stroke-linecap="round"/>
</svg>
