<svg width="32" height="32" viewBox="0 0 32 32" fill="none" xmlns="http://www.w3.org/2000/svg">
<path d="M26.6673 29.3333V25.3333C26.6673 22.8192 26.6673 21.5621 25.8863 20.7811C25.1052 20 23.8481 20 21.334 20H18.6673L16.0007 22.6667L13.334 20H10.6673C8.15316 20 6.89608 20 6.11504 20.7811C5.33398 21.5621 5.33398 22.8192 5.33398 25.3333V29.3333" stroke="#222222" stroke-width="1.5" stroke-linecap="round" stroke-linejoin="round"/>
<path d="M21.334 20V29.3333" stroke="#222222" stroke-width="1.5" stroke-linecap="round" stroke-linejoin="round"/>
<path d="M10.666 20V29.3333" stroke="#222222" stroke-width="1.5" stroke-linecap="round" stroke-linejoin="round"/>
<path d="M20.6673 11.9974V9.33073C20.6673 6.7534 18.578 4.66406 16.0007 4.66406C13.4233 4.66406 11.334 6.7534 11.334 9.33073V11.9974C11.334 14.5747 13.4233 16.6641 16.0007 16.6641C18.578 16.6641 20.6673 14.5747 20.6673 11.9974Z" stroke="#222222" stroke-width="1.5" stroke-linecap="round" stroke-linejoin="round"/>
<path d="M10 10H22" stroke="#222222" stroke-width="1.5" stroke-linecap="round" stroke-linejoin="round"/>
<path d="M16 2.66406V4.66406" stroke="#222222" stroke-width="1.5" stroke-linecap="round" stroke-linejoin="round"/>
</svg>
