<svg width="20" height="20" viewBox="0 0 20 20" fill="none" xmlns="http://www.w3.org/2000/svg">
<path d="M11.25 13.332C11.25 13.6636 11.1183 13.9815 10.8839 14.2159C10.6495 14.4503 10.3315 14.582 10 14.582C9.66848 14.582 9.35054 14.4503 9.11612 14.2159C8.8817 13.9815 8.75 13.6636 8.75 13.332C8.75 13.0005 8.8817 12.6826 9.11612 12.4481C9.35054 12.2137 9.66848 12.082 10 12.082C10.3315 12.082 10.6495 12.2137 10.8839 12.4481C11.1183 12.6826 11.25 13.0005 11.25 13.332Z" fill="#45C25C"/>
<path d="M11.9558 0.550781L14.6058 4.26412L16.3533 3.66828L17.9483 8.33412H18.75V18.3341H1.25V8.33412H1.675V8.32578L2.215 8.33078L11.9558 0.550781ZM7.83083 8.33412H16.1875L15.3233 5.80661L14.055 6.21245L7.83083 8.33412ZM6.5325 7.01495L12.9583 4.82578L11.6217 2.95078L6.5325 7.01495ZM4.58333 10.0008H2.91667V11.6674C3.35869 11.6674 3.78262 11.4919 4.09518 11.1793C4.40774 10.8667 4.58333 10.4428 4.58333 10.0008ZM12.9167 13.3341C12.9167 12.9511 12.8412 12.5718 12.6946 12.218C12.5481 11.8641 12.3332 11.5426 12.0624 11.2717C11.7916 11.0009 11.47 10.786 11.1162 10.6395C10.7623 10.4929 10.383 10.4174 10 10.4174C9.61698 10.4174 9.23771 10.4929 8.88384 10.6395C8.52997 10.786 8.20844 11.0009 7.93761 11.2717C7.66677 11.5426 7.45193 11.8641 7.30535 12.218C7.15877 12.5718 7.08333 12.9511 7.08333 13.3341C7.08333 14.1077 7.39062 14.8495 7.93761 15.3965C8.48459 15.9435 9.22645 16.2508 10 16.2508C10.7735 16.2508 11.5154 15.9435 12.0624 15.3965C12.6094 14.8495 12.9167 14.1077 12.9167 13.3341ZM17.0833 16.6674V15.0008C16.6413 15.0008 16.2174 15.1764 15.9048 15.4889C15.5923 15.8015 15.4167 16.2254 15.4167 16.6674H17.0833ZM15.4167 10.0008C15.4167 10.4428 15.5923 10.8667 15.9048 11.1793C16.2174 11.4919 16.6413 11.6674 17.0833 11.6674V10.0008H15.4167ZM2.91667 16.6674H4.58333C4.58333 16.2254 4.40774 15.8015 4.09518 15.4889C3.78262 15.1764 3.35869 15.0008 2.91667 15.0008V16.6674Z" fill="#45C25C"/>
</svg>
