<svg width="32" height="32" viewBox="0 0 32 32" fill="none" xmlns="http://www.w3.org/2000/svg">
<path d="M24.9451 4.65785C22.422 3.40249 19.3345 2.66406 16 2.66406C12.6655 2.66406 9.578 3.40249 7.05488 4.65785C5.81757 5.27348 5.19892 5.58129 4.59947 6.5491C4 7.51693 4 8.45404 4 10.3282V14.9802C4 22.5581 10.0565 26.7713 13.564 28.5758C14.5423 29.0791 15.0313 29.3307 16 29.3307C16.9687 29.3307 17.4577 29.0791 18.4359 28.5758C21.9435 26.7713 28 22.5581 28 14.9802V10.3282C28 8.45405 28 7.51694 27.4005 6.5491C26.8011 5.58128 26.1824 5.27348 24.9451 4.65785Z" stroke="#222222" stroke-width="1.5" stroke-linecap="round" stroke-linejoin="round"/>
<path d="M11.334 19.3338C11.334 16.7565 13.4233 14.6671 16.0007 14.6671C18.578 14.6671 20.6673 16.7565 20.6673 19.3338M18.6673 12.0026C18.6673 13.4754 17.4735 14.6693 16.0007 14.6693C14.5279 14.6693 13.334 13.4754 13.334 12.0026C13.334 10.5298 14.5279 9.33594 16.0007 9.33594C17.4735 9.33594 18.6673 10.5298 18.6673 12.0026Z" stroke="#222222" stroke-width="1.5" stroke-linecap="round" stroke-linejoin="round"/>
</svg>
