<svg width="29" height="24" viewBox="0 0 29 24" fill="none" xmlns="http://www.w3.org/2000/svg">
<path d="M16.388 24V15.4121C16.388 11.5783 17.4201 8.23003 19.4844 5.36741C21.5486 2.45367 24.7205 0.664534 29 0V5.59744C26.533 5.90415 24.8967 6.72204 24.0911 8.05112C23.2856 9.38019 22.8828 11.1438 22.8828 13.3419L18.4271 12.4217H28.849V24H16.388ZM0 24V15.4121C0 11.5783 1.03212 8.23003 3.09635 5.36741C5.16059 2.45367 8.33247 0.664534 12.612 0V5.59744C10.145 5.90415 8.50868 6.72204 7.70312 8.05112C6.89757 9.38019 6.49479 11.1438 6.49479 13.3419L2.03906 12.4217H12.4609V24H0Z" fill="#03BE63"/>
</svg>
